G75*
G70*
%OFA0B0*%
%FSLAX24Y24*%
%IPPOS*%
%LPD*%
%AMOC8*
5,1,8,0,0,1.08239X$1,22.5*
%
%ADD10C,0.0000*%
%ADD11C,0.0740*%
%ADD12R,0.0760X0.0760*%
%ADD13OC8,0.0630*%
%ADD14C,0.0630*%
%ADD15C,0.1700*%
%ADD16R,0.0630X0.0710*%
%ADD17R,0.0787X0.0472*%
%ADD18R,0.0591X0.0512*%
%ADD19C,0.0560*%
%ADD20C,0.0600*%
%ADD21C,0.0640*%
%ADD22C,0.0160*%
%ADD23C,0.1660*%
%ADD24C,0.0356*%
%ADD25C,0.0240*%
%ADD26C,0.0100*%
%ADD27C,0.0400*%
D10*
X000280Y001800D02*
X000280Y019800D01*
X018280Y019800D01*
X018280Y001800D01*
X000280Y001800D01*
X011940Y017900D02*
X011942Y017950D01*
X011948Y018000D01*
X011958Y018049D01*
X011971Y018098D01*
X011989Y018145D01*
X012010Y018191D01*
X012034Y018234D01*
X012062Y018276D01*
X012093Y018316D01*
X012127Y018353D01*
X012164Y018387D01*
X012204Y018418D01*
X012246Y018446D01*
X012289Y018470D01*
X012335Y018491D01*
X012382Y018509D01*
X012431Y018522D01*
X012480Y018532D01*
X012530Y018538D01*
X012580Y018540D01*
X012630Y018538D01*
X012680Y018532D01*
X012729Y018522D01*
X012778Y018509D01*
X012825Y018491D01*
X012871Y018470D01*
X012914Y018446D01*
X012956Y018418D01*
X012996Y018387D01*
X013033Y018353D01*
X013067Y018316D01*
X013098Y018276D01*
X013126Y018234D01*
X013150Y018191D01*
X013171Y018145D01*
X013189Y018098D01*
X013202Y018049D01*
X013212Y018000D01*
X013218Y017950D01*
X013220Y017900D01*
X013218Y017850D01*
X013212Y017800D01*
X013202Y017751D01*
X013189Y017702D01*
X013171Y017655D01*
X013150Y017609D01*
X013126Y017566D01*
X013098Y017524D01*
X013067Y017484D01*
X013033Y017447D01*
X012996Y017413D01*
X012956Y017382D01*
X012914Y017354D01*
X012871Y017330D01*
X012825Y017309D01*
X012778Y017291D01*
X012729Y017278D01*
X012680Y017268D01*
X012630Y017262D01*
X012580Y017260D01*
X012530Y017262D01*
X012480Y017268D01*
X012431Y017278D01*
X012382Y017291D01*
X012335Y017309D01*
X012289Y017330D01*
X012246Y017354D01*
X012204Y017382D01*
X012164Y017413D01*
X012127Y017447D01*
X012093Y017484D01*
X012062Y017524D01*
X012034Y017566D01*
X012010Y017609D01*
X011989Y017655D01*
X011971Y017702D01*
X011958Y017751D01*
X011948Y017800D01*
X011942Y017850D01*
X011940Y017900D01*
X015940Y017900D02*
X015942Y017950D01*
X015948Y018000D01*
X015958Y018049D01*
X015971Y018098D01*
X015989Y018145D01*
X016010Y018191D01*
X016034Y018234D01*
X016062Y018276D01*
X016093Y018316D01*
X016127Y018353D01*
X016164Y018387D01*
X016204Y018418D01*
X016246Y018446D01*
X016289Y018470D01*
X016335Y018491D01*
X016382Y018509D01*
X016431Y018522D01*
X016480Y018532D01*
X016530Y018538D01*
X016580Y018540D01*
X016630Y018538D01*
X016680Y018532D01*
X016729Y018522D01*
X016778Y018509D01*
X016825Y018491D01*
X016871Y018470D01*
X016914Y018446D01*
X016956Y018418D01*
X016996Y018387D01*
X017033Y018353D01*
X017067Y018316D01*
X017098Y018276D01*
X017126Y018234D01*
X017150Y018191D01*
X017171Y018145D01*
X017189Y018098D01*
X017202Y018049D01*
X017212Y018000D01*
X017218Y017950D01*
X017220Y017900D01*
X017218Y017850D01*
X017212Y017800D01*
X017202Y017751D01*
X017189Y017702D01*
X017171Y017655D01*
X017150Y017609D01*
X017126Y017566D01*
X017098Y017524D01*
X017067Y017484D01*
X017033Y017447D01*
X016996Y017413D01*
X016956Y017382D01*
X016914Y017354D01*
X016871Y017330D01*
X016825Y017309D01*
X016778Y017291D01*
X016729Y017278D01*
X016680Y017268D01*
X016630Y017262D01*
X016580Y017260D01*
X016530Y017262D01*
X016480Y017268D01*
X016431Y017278D01*
X016382Y017291D01*
X016335Y017309D01*
X016289Y017330D01*
X016246Y017354D01*
X016204Y017382D01*
X016164Y017413D01*
X016127Y017447D01*
X016093Y017484D01*
X016062Y017524D01*
X016034Y017566D01*
X016010Y017609D01*
X015989Y017655D01*
X015971Y017702D01*
X015958Y017751D01*
X015948Y017800D01*
X015942Y017850D01*
X015940Y017900D01*
D11*
X015330Y015400D03*
X014330Y015400D03*
X013830Y014400D03*
X014830Y014400D03*
X015830Y014400D03*
X013330Y015400D03*
X004160Y004490D03*
X004160Y002710D03*
X001600Y002710D03*
X001600Y004490D03*
D12*
X011730Y003100D03*
X016980Y003100D03*
X016980Y010600D03*
X011730Y010600D03*
D13*
X010480Y007500D03*
D14*
X010480Y008500D03*
D15*
X007480Y005894D03*
X009330Y004713D03*
X007480Y003531D03*
D16*
X008720Y017800D03*
X009840Y017800D03*
D17*
X007658Y016399D03*
X007658Y015612D03*
X007658Y014824D03*
X007658Y014037D03*
X007658Y013250D03*
X007658Y012462D03*
X007658Y011675D03*
X007658Y010887D03*
X001280Y010887D03*
X001280Y011675D03*
X001280Y012462D03*
X001280Y013250D03*
X001280Y014037D03*
X001280Y014824D03*
X001280Y015612D03*
X001280Y016399D03*
D18*
X008580Y011674D03*
X008580Y010926D03*
X004880Y006074D03*
X004880Y005326D03*
X009880Y016026D03*
X009880Y016774D03*
D19*
X010900Y014100D02*
X011460Y014100D01*
X011460Y013100D02*
X010900Y013100D01*
D20*
X010480Y012200D02*
X009880Y012200D01*
X009880Y011200D02*
X010480Y011200D01*
X010480Y010200D02*
X009880Y010200D01*
X012980Y012700D02*
X012980Y013300D01*
X013980Y013300D02*
X013980Y012700D01*
X014980Y012700D02*
X014980Y013300D01*
D21*
X003880Y007600D03*
X003880Y006600D03*
X002880Y006600D03*
X002880Y007600D03*
X001880Y007600D03*
X001880Y006600D03*
D22*
X001889Y006609D02*
X001871Y006609D01*
X001871Y007100D01*
X001841Y007100D01*
X001763Y007088D01*
X001688Y007063D01*
X001618Y007028D01*
X001554Y006981D01*
X001499Y006926D01*
X001452Y006862D01*
X001417Y006792D01*
X001392Y006717D01*
X001380Y006639D01*
X001380Y006609D01*
X001871Y006609D01*
X001871Y006591D01*
X001380Y006591D01*
X001380Y006561D01*
X001392Y006483D01*
X001417Y006408D01*
X001452Y006338D01*
X001499Y006274D01*
X001554Y006219D01*
X001618Y006172D01*
X001688Y006137D01*
X001763Y006112D01*
X001841Y006100D01*
X001871Y006100D01*
X001871Y006591D01*
X001889Y006591D01*
X001889Y006609D01*
X001889Y007100D01*
X001919Y007100D01*
X001997Y007088D01*
X002072Y007063D01*
X002142Y007028D01*
X002206Y006981D01*
X002261Y006926D01*
X002308Y006862D01*
X002343Y006792D01*
X002368Y006717D01*
X002380Y006639D01*
X002380Y006609D01*
X001889Y006609D01*
X001889Y006591D02*
X002380Y006591D01*
X002380Y006561D01*
X002368Y006483D01*
X002343Y006408D01*
X002308Y006338D01*
X002261Y006274D01*
X002206Y006219D01*
X002142Y006172D01*
X002072Y006137D01*
X001997Y006112D01*
X001919Y006100D01*
X001889Y006100D01*
X001889Y006591D01*
X001889Y006555D02*
X001871Y006555D01*
X001871Y006397D02*
X001889Y006397D01*
X001889Y006238D02*
X001871Y006238D01*
X002225Y006238D02*
X002606Y006238D01*
X002625Y006219D02*
X002790Y006150D01*
X002970Y006150D01*
X003135Y006219D01*
X003261Y006345D01*
X003330Y006510D01*
X003330Y006690D01*
X003311Y006734D01*
X003467Y006890D01*
X003534Y006890D01*
X003499Y006855D01*
X003430Y006690D01*
X003430Y006510D01*
X003499Y006345D01*
X003625Y006219D01*
X003790Y006150D01*
X003970Y006150D01*
X004135Y006219D01*
X004261Y006345D01*
X004330Y006510D01*
X004330Y006690D01*
X004261Y006855D01*
X004226Y006890D01*
X005373Y006890D01*
X004993Y006510D01*
X004943Y006460D01*
X004531Y006460D01*
X004455Y006384D01*
X004455Y005764D01*
X004519Y005700D01*
X004455Y005636D01*
X004455Y005198D01*
X004247Y004990D01*
X004061Y004990D01*
X003877Y004914D01*
X003736Y004773D01*
X003706Y004700D01*
X002054Y004700D01*
X002024Y004773D01*
X001883Y004914D01*
X001699Y004990D01*
X001501Y004990D01*
X001317Y004914D01*
X001176Y004773D01*
X001100Y004589D01*
X001100Y004391D01*
X001176Y004207D01*
X001317Y004066D01*
X001501Y003990D01*
X001699Y003990D01*
X001883Y004066D01*
X002024Y004207D01*
X002054Y004280D01*
X003706Y004280D01*
X003736Y004207D01*
X003877Y004066D01*
X004061Y003990D01*
X004259Y003990D01*
X004443Y004066D01*
X004584Y004207D01*
X004660Y004391D01*
X004660Y004589D01*
X004596Y004745D01*
X004791Y004940D01*
X005229Y004940D01*
X005305Y005016D01*
X005305Y005636D01*
X005241Y005700D01*
X005305Y005764D01*
X005305Y006228D01*
X006967Y007890D01*
X007090Y008013D01*
X007090Y010606D01*
X007097Y010582D01*
X007120Y010541D01*
X007154Y010507D01*
X007195Y010483D01*
X007241Y010471D01*
X007620Y010471D01*
X007620Y010849D01*
X007696Y010849D01*
X007696Y010471D01*
X008075Y010471D01*
X008121Y010483D01*
X008162Y010507D01*
X008179Y010524D01*
X008215Y010502D01*
X008261Y010490D01*
X008532Y010490D01*
X008532Y010878D01*
X008105Y010878D01*
X008105Y010849D01*
X007696Y010849D01*
X007696Y010926D01*
X007620Y010926D01*
X007620Y011304D01*
X007241Y011304D01*
X007195Y011291D01*
X007179Y011282D01*
X007141Y011375D01*
X007090Y011426D01*
X007090Y012774D01*
X007141Y012825D01*
X007178Y012915D01*
X007210Y012883D01*
X008106Y012883D01*
X008182Y012960D01*
X008182Y013540D01*
X008106Y013616D01*
X007210Y013616D01*
X007134Y013540D01*
X007134Y013460D01*
X007043Y013460D01*
X006891Y013308D01*
X006819Y013308D01*
X006705Y013261D01*
X006690Y013246D01*
X006690Y015113D01*
X006769Y015192D01*
X006841Y015192D01*
X006955Y015239D01*
X007041Y015325D01*
X007088Y015439D01*
X007088Y015490D01*
X007134Y015490D01*
X007134Y015322D01*
X007210Y015246D01*
X008106Y015246D01*
X008182Y015322D01*
X008182Y015902D01*
X008106Y015978D01*
X007210Y015978D01*
X007142Y015910D01*
X007126Y015910D01*
X007141Y015925D01*
X007188Y016039D01*
X007188Y016055D01*
X007210Y016033D01*
X008106Y016033D01*
X008182Y016109D01*
X008182Y016689D01*
X008106Y016765D01*
X007210Y016765D01*
X007134Y016689D01*
X007134Y016609D01*
X007092Y016609D01*
X006891Y016408D01*
X006819Y016408D01*
X006705Y016361D01*
X006619Y016275D01*
X006572Y016161D01*
X006572Y016089D01*
X005993Y015510D01*
X005870Y015387D01*
X005870Y008287D01*
X005393Y007810D01*
X004280Y007810D01*
X004261Y007855D01*
X004135Y007981D01*
X003970Y008050D01*
X003790Y008050D01*
X003625Y007981D01*
X003499Y007855D01*
X003430Y007690D01*
X003430Y007510D01*
X003499Y007345D01*
X003534Y007310D01*
X003293Y007310D01*
X003014Y007031D01*
X002970Y007050D01*
X002790Y007050D01*
X002625Y006981D01*
X002499Y006855D01*
X002430Y006690D01*
X002430Y006510D01*
X002499Y006345D01*
X002625Y006219D01*
X002477Y006397D02*
X002337Y006397D01*
X002379Y006555D02*
X002430Y006555D01*
X002440Y006714D02*
X002368Y006714D01*
X002300Y006872D02*
X002516Y006872D01*
X002743Y007031D02*
X002136Y007031D01*
X002064Y007189D02*
X002696Y007189D01*
X002625Y007219D02*
X002790Y007150D01*
X002970Y007150D01*
X003135Y007219D01*
X003261Y007345D01*
X003330Y007510D01*
X003330Y007690D01*
X003261Y007855D01*
X003135Y007981D01*
X003090Y008000D01*
X003090Y009413D01*
X003969Y010292D01*
X004041Y010292D01*
X004155Y010339D01*
X004241Y010425D01*
X004288Y010539D01*
X004288Y010661D01*
X004241Y010775D01*
X004155Y010861D01*
X004041Y010908D01*
X003919Y010908D01*
X003805Y010861D01*
X003719Y010775D01*
X003672Y010661D01*
X003672Y010589D01*
X002670Y009587D01*
X002670Y008000D01*
X002625Y007981D01*
X002499Y007855D01*
X002430Y007690D01*
X002430Y007510D01*
X002499Y007345D01*
X002625Y007219D01*
X002498Y007348D02*
X002262Y007348D01*
X002261Y007345D02*
X002330Y007510D01*
X002330Y007690D01*
X002261Y007855D01*
X002135Y007981D01*
X001970Y008050D01*
X001790Y008050D01*
X001625Y007981D01*
X001499Y007855D01*
X001430Y007690D01*
X001430Y007510D01*
X001499Y007345D01*
X001625Y007219D01*
X001790Y007150D01*
X001970Y007150D01*
X002135Y007219D01*
X002261Y007345D01*
X002328Y007506D02*
X002432Y007506D01*
X002430Y007665D02*
X002330Y007665D01*
X002275Y007823D02*
X002485Y007823D01*
X002625Y007982D02*
X002135Y007982D01*
X001625Y007982D02*
X000460Y007982D01*
X000460Y008140D02*
X002670Y008140D01*
X002670Y008299D02*
X000460Y008299D01*
X000460Y008457D02*
X002670Y008457D01*
X002670Y008616D02*
X000460Y008616D01*
X000460Y008774D02*
X002670Y008774D01*
X002670Y008933D02*
X000460Y008933D01*
X000460Y009091D02*
X002670Y009091D01*
X002670Y009250D02*
X000460Y009250D01*
X000460Y009408D02*
X002670Y009408D01*
X002670Y009567D02*
X000460Y009567D01*
X000460Y009725D02*
X002808Y009725D01*
X002967Y009884D02*
X000460Y009884D01*
X000460Y010042D02*
X003125Y010042D01*
X003284Y010201D02*
X000460Y010201D01*
X000460Y010359D02*
X003442Y010359D01*
X003601Y010518D02*
X000460Y010518D01*
X000460Y010676D02*
X000756Y010676D01*
X000756Y010597D02*
X000832Y010521D01*
X001728Y010521D01*
X001804Y010597D01*
X001804Y010650D01*
X003130Y010650D01*
X003222Y010688D01*
X004492Y011958D01*
X004530Y012050D01*
X004530Y012190D01*
X004554Y012190D01*
X004605Y012139D01*
X004719Y012092D01*
X004841Y012092D01*
X004955Y012139D01*
X005041Y012225D01*
X005088Y012339D01*
X005088Y012461D01*
X005041Y012575D01*
X004955Y012661D01*
X004841Y012708D01*
X004719Y012708D01*
X004605Y012661D01*
X004554Y012610D01*
X004530Y012610D01*
X004530Y012996D01*
X005692Y014158D01*
X005730Y014250D01*
X005730Y014714D01*
X005741Y014725D01*
X005788Y014839D01*
X005788Y014961D01*
X005741Y015075D01*
X005655Y015161D01*
X005541Y015208D01*
X005419Y015208D01*
X005305Y015161D01*
X005219Y015075D01*
X005172Y014961D01*
X005172Y014839D01*
X005219Y014725D01*
X005230Y014714D01*
X005230Y014404D01*
X004138Y013312D01*
X004068Y013242D01*
X004030Y013150D01*
X004030Y012204D01*
X002976Y011150D01*
X001804Y011150D01*
X001804Y011177D01*
X001728Y011254D01*
X000832Y011254D01*
X000756Y011177D01*
X000756Y010597D01*
X000756Y010835D02*
X000460Y010835D01*
X000460Y010993D02*
X000756Y010993D01*
X000756Y011152D02*
X000460Y011152D01*
X000460Y011310D02*
X000831Y011310D01*
X000832Y011309D02*
X001728Y011309D01*
X001804Y011385D01*
X001804Y011965D01*
X001728Y012041D01*
X000832Y012041D01*
X000756Y011965D01*
X000756Y011385D01*
X000832Y011309D01*
X000756Y011469D02*
X000460Y011469D01*
X000460Y011627D02*
X000756Y011627D01*
X000756Y011786D02*
X000460Y011786D01*
X000460Y011944D02*
X000756Y011944D01*
X000832Y012096D02*
X001728Y012096D01*
X001804Y012172D01*
X001804Y012752D01*
X001728Y012828D01*
X000832Y012828D01*
X000756Y012752D01*
X000756Y012172D01*
X000832Y012096D01*
X000826Y012103D02*
X000460Y012103D01*
X000460Y012261D02*
X000756Y012261D01*
X000756Y012420D02*
X000460Y012420D01*
X000460Y012578D02*
X000756Y012578D01*
X000756Y012737D02*
X000460Y012737D01*
X000460Y012895D02*
X000821Y012895D01*
X000832Y012883D02*
X001728Y012883D01*
X001804Y012960D01*
X001804Y013040D01*
X003204Y013040D01*
X003255Y012988D01*
X003368Y012941D01*
X003491Y012941D01*
X003604Y012988D01*
X003691Y013075D01*
X003738Y013188D01*
X003738Y013311D01*
X003691Y013424D01*
X003604Y013511D01*
X003491Y013558D01*
X003368Y013558D01*
X003255Y013511D01*
X003204Y013460D01*
X001804Y013460D01*
X001804Y013540D01*
X001728Y013616D01*
X000832Y013616D01*
X000756Y013540D01*
X000756Y012960D01*
X000832Y012883D01*
X000756Y013054D02*
X000460Y013054D01*
X000460Y013212D02*
X000756Y013212D01*
X000756Y013371D02*
X000460Y013371D01*
X000460Y013529D02*
X000756Y013529D01*
X000832Y013671D02*
X001728Y013671D01*
X001804Y013747D01*
X001804Y013790D01*
X003454Y013790D01*
X003505Y013739D01*
X003619Y013692D01*
X003741Y013692D01*
X003855Y013739D01*
X003941Y013825D01*
X003988Y013939D01*
X003988Y014061D01*
X003941Y014175D01*
X003855Y014261D01*
X003741Y014308D01*
X003619Y014308D01*
X003505Y014261D01*
X003454Y014210D01*
X001804Y014210D01*
X001804Y014327D01*
X001728Y014403D01*
X000832Y014403D01*
X000756Y014327D01*
X000756Y013747D01*
X000832Y013671D01*
X000816Y013688D02*
X000460Y013688D01*
X000460Y013846D02*
X000756Y013846D01*
X000756Y014005D02*
X000460Y014005D01*
X000460Y014163D02*
X000756Y014163D01*
X000756Y014322D02*
X000460Y014322D01*
X000460Y014480D02*
X000811Y014480D01*
X000832Y014458D02*
X001728Y014458D01*
X001804Y014534D01*
X001804Y014614D01*
X003164Y014614D01*
X003219Y014592D01*
X003341Y014592D01*
X003455Y014639D01*
X003541Y014725D01*
X003588Y014839D01*
X003588Y014961D01*
X003541Y015075D01*
X003455Y015161D01*
X003341Y015208D01*
X003219Y015208D01*
X003105Y015161D01*
X003019Y015075D01*
X003002Y015034D01*
X001804Y015034D01*
X001804Y015114D01*
X003058Y015114D01*
X002941Y015392D02*
X003055Y015439D01*
X003141Y015525D01*
X003188Y015639D01*
X003188Y015761D01*
X003141Y015875D01*
X003090Y015926D01*
X003090Y016087D01*
X002967Y016210D01*
X002568Y016609D01*
X001804Y016609D01*
X001804Y016689D01*
X001728Y016765D01*
X000832Y016765D01*
X000756Y016689D01*
X000756Y016109D01*
X000832Y016033D01*
X001728Y016033D01*
X001804Y016109D01*
X001804Y016189D01*
X002394Y016189D01*
X002664Y015919D01*
X002619Y015875D01*
X002572Y015761D01*
X002572Y015639D01*
X002619Y015525D01*
X002705Y015439D01*
X002819Y015392D01*
X002941Y015392D01*
X003036Y015431D02*
X005914Y015431D01*
X005870Y015273D02*
X001754Y015273D01*
X001728Y015246D02*
X001804Y015322D01*
X001804Y015902D01*
X001728Y015978D01*
X000832Y015978D01*
X000756Y015902D01*
X000756Y015322D01*
X000832Y015246D01*
X001728Y015246D01*
X001728Y015191D02*
X000832Y015191D01*
X000756Y015114D01*
X000460Y015114D01*
X000460Y014956D02*
X000756Y014956D01*
X000756Y015114D02*
X000756Y014534D01*
X000832Y014458D01*
X000756Y014639D02*
X000460Y014639D01*
X000460Y014797D02*
X000756Y014797D01*
X000806Y015273D02*
X000460Y015273D01*
X000460Y015431D02*
X000756Y015431D01*
X000756Y015590D02*
X000460Y015590D01*
X000460Y015748D02*
X000756Y015748D01*
X000761Y015907D02*
X000460Y015907D01*
X000460Y016065D02*
X000800Y016065D01*
X000756Y016224D02*
X000460Y016224D01*
X000460Y016382D02*
X000756Y016382D01*
X000756Y016541D02*
X000460Y016541D01*
X000460Y016699D02*
X000766Y016699D01*
X000460Y016858D02*
X008370Y016858D01*
X008370Y017016D02*
X008180Y017016D01*
X008180Y017000D02*
X000460Y017000D01*
X000460Y001980D01*
X018100Y001980D01*
X018100Y019620D01*
X008180Y019620D01*
X008180Y017000D01*
X008180Y017175D02*
X008370Y017175D01*
X008370Y017315D02*
X008351Y017315D01*
X008275Y017391D01*
X008275Y018209D01*
X008351Y018285D01*
X009089Y018285D01*
X009165Y018209D01*
X009165Y017391D01*
X009089Y017315D01*
X008790Y017315D01*
X008790Y015126D01*
X008841Y015075D01*
X008888Y014961D01*
X008888Y014945D01*
X009780Y014054D01*
X010038Y014312D01*
X010130Y014350D01*
X010570Y014350D01*
X010668Y014448D01*
X010818Y014510D01*
X011542Y014510D01*
X011692Y014448D01*
X011808Y014332D01*
X011870Y014182D01*
X011870Y014057D01*
X011893Y014080D01*
X012493Y014680D01*
X012614Y014730D01*
X013453Y014730D01*
X013500Y014777D01*
X013500Y014816D01*
X013550Y014937D01*
X013573Y014959D01*
X013429Y014900D01*
X013231Y014900D01*
X013047Y014976D01*
X012906Y015117D01*
X012830Y015301D01*
X012830Y015499D01*
X012906Y015683D01*
X013047Y015824D01*
X013231Y015900D01*
X013429Y015900D01*
X013613Y015824D01*
X013754Y015683D01*
X013830Y015499D01*
X013830Y015301D01*
X013771Y015157D01*
X013855Y015241D01*
X013830Y015301D01*
X013830Y015499D01*
X013906Y015683D01*
X014047Y015824D01*
X014231Y015900D01*
X014429Y015900D01*
X014613Y015824D01*
X014754Y015683D01*
X014830Y015499D01*
X014830Y015301D01*
X014771Y015157D01*
X014855Y015241D01*
X014830Y015301D01*
X014830Y015499D01*
X014906Y015683D01*
X015047Y015824D01*
X015231Y015900D01*
X015429Y015900D01*
X015613Y015824D01*
X015754Y015683D01*
X015830Y015499D01*
X015830Y015301D01*
X015754Y015117D01*
X015613Y014976D01*
X015459Y014912D01*
X015242Y014695D01*
X015254Y014683D01*
X015330Y014499D01*
X015330Y014301D01*
X015406Y014117D01*
X015547Y013976D01*
X015731Y013900D01*
X015929Y013900D01*
X016113Y013976D01*
X016254Y014117D01*
X016330Y014301D01*
X016330Y014499D01*
X016300Y014573D01*
X016390Y014663D01*
X016390Y015987D01*
X016267Y016110D01*
X016267Y016110D01*
X015767Y016610D01*
X012993Y016610D01*
X012391Y016008D01*
X012319Y016008D01*
X012205Y015961D01*
X012119Y015875D01*
X012072Y015761D01*
X012072Y015639D01*
X012119Y015525D01*
X012205Y015439D01*
X012319Y015392D01*
X012441Y015392D01*
X012555Y015439D01*
X012641Y015525D01*
X012688Y015639D01*
X012688Y015711D01*
X013167Y016190D01*
X015593Y016190D01*
X015970Y015813D01*
X015970Y014883D01*
X015929Y014900D01*
X015731Y014900D01*
X015547Y014824D01*
X015406Y014683D01*
X015330Y014499D01*
X015330Y014301D01*
X015254Y014117D01*
X015113Y013976D01*
X014959Y013912D01*
X014410Y013363D01*
X014410Y012614D01*
X014345Y012456D01*
X014224Y012335D01*
X014066Y012270D01*
X013894Y012270D01*
X013736Y012335D01*
X013615Y012456D01*
X013550Y012614D01*
X013550Y013386D01*
X013615Y013544D01*
X013736Y013665D01*
X013807Y013694D01*
X013893Y013780D01*
X014073Y013959D01*
X013929Y013900D01*
X013731Y013900D01*
X013547Y013976D01*
X013453Y014070D01*
X012817Y014070D01*
X012410Y013663D01*
X012410Y012037D01*
X017167Y007280D01*
X017260Y007187D01*
X017310Y007066D01*
X017310Y003610D01*
X017414Y003610D01*
X017490Y003534D01*
X017490Y002666D01*
X017414Y002590D01*
X016546Y002590D01*
X016470Y002666D01*
X016470Y003534D01*
X016546Y003610D01*
X016650Y003610D01*
X016650Y006863D01*
X011800Y011713D01*
X011750Y011834D01*
X011750Y012810D01*
X011692Y012752D01*
X011542Y012690D01*
X010818Y012690D01*
X010668Y012752D01*
X010552Y012868D01*
X010490Y013018D01*
X010490Y013182D01*
X010552Y013332D01*
X010668Y013448D01*
X010818Y013510D01*
X011542Y013510D01*
X011692Y013448D01*
X011750Y013390D01*
X011750Y013810D01*
X011692Y013752D01*
X011542Y013690D01*
X010818Y013690D01*
X010668Y013752D01*
X010570Y013850D01*
X010284Y013850D01*
X010134Y013700D01*
X010322Y013512D01*
X010392Y013442D01*
X010430Y013350D01*
X010430Y012630D01*
X010566Y012630D01*
X010724Y012565D01*
X010845Y012444D01*
X010910Y012286D01*
X010910Y012114D01*
X010845Y011956D01*
X010724Y011835D01*
X010566Y011770D01*
X009794Y011770D01*
X009636Y011835D01*
X009515Y011956D01*
X009450Y012114D01*
X009450Y012286D01*
X009515Y012444D01*
X009636Y012565D01*
X009794Y012630D01*
X009930Y012630D01*
X009930Y013196D01*
X009638Y013488D01*
X009568Y013558D01*
X008535Y014592D01*
X008519Y014592D01*
X008405Y014639D01*
X008319Y014725D01*
X008272Y014839D01*
X008272Y014961D01*
X008319Y015075D01*
X008370Y015126D01*
X008370Y017315D01*
X008333Y017333D02*
X008180Y017333D01*
X008180Y017492D02*
X008275Y017492D01*
X008275Y017650D02*
X008180Y017650D01*
X008180Y017809D02*
X008275Y017809D01*
X008275Y017967D02*
X008180Y017967D01*
X008180Y018126D02*
X008275Y018126D01*
X008350Y018284D02*
X008180Y018284D01*
X008180Y018443D02*
X011963Y018443D01*
X011885Y018364D02*
X011760Y018063D01*
X011760Y017737D01*
X011885Y017436D01*
X012116Y017205D01*
X012417Y017080D01*
X012743Y017080D01*
X013044Y017205D01*
X013275Y017436D01*
X013400Y017737D01*
X013400Y018063D01*
X013275Y018364D01*
X013044Y018595D01*
X012743Y018720D01*
X012417Y018720D01*
X012116Y018595D01*
X011885Y018364D01*
X011852Y018284D02*
X010210Y018284D01*
X010209Y018285D02*
X009471Y018285D01*
X009395Y018209D01*
X009395Y017391D01*
X009471Y017315D01*
X009670Y017315D01*
X009670Y017160D01*
X009531Y017160D01*
X009455Y017084D01*
X009455Y016464D01*
X009519Y016400D01*
X009455Y016336D01*
X009455Y015716D01*
X009531Y015640D01*
X009670Y015640D01*
X009670Y015608D01*
X009619Y015608D01*
X009505Y015561D01*
X009419Y015475D01*
X009372Y015361D01*
X009372Y015239D01*
X009419Y015125D01*
X009505Y015039D01*
X009619Y014992D01*
X009741Y014992D01*
X009855Y015039D01*
X009941Y015125D01*
X009988Y015239D01*
X009988Y015311D01*
X010090Y015413D01*
X010090Y015640D01*
X010229Y015640D01*
X010305Y015716D01*
X010305Y016336D01*
X010241Y016400D01*
X010305Y016464D01*
X010305Y017084D01*
X010229Y017160D01*
X010090Y017160D01*
X010090Y017315D01*
X010209Y017315D01*
X010285Y017391D01*
X010285Y018209D01*
X010209Y018285D01*
X010285Y018126D02*
X011786Y018126D01*
X011760Y017967D02*
X010285Y017967D01*
X010285Y017809D02*
X011760Y017809D01*
X011796Y017650D02*
X010285Y017650D01*
X010285Y017492D02*
X011862Y017492D01*
X011987Y017333D02*
X010227Y017333D01*
X010090Y017175D02*
X012189Y017175D01*
X012765Y016382D02*
X010259Y016382D01*
X010305Y016224D02*
X012607Y016224D01*
X012448Y016065D02*
X010305Y016065D01*
X010305Y015907D02*
X012151Y015907D01*
X012072Y015748D02*
X010305Y015748D01*
X010090Y015590D02*
X012092Y015590D01*
X012224Y015431D02*
X010090Y015431D01*
X009988Y015273D02*
X012842Y015273D01*
X012830Y015431D02*
X012536Y015431D01*
X012668Y015590D02*
X012867Y015590D01*
X012971Y015748D02*
X012725Y015748D01*
X012884Y015907D02*
X015876Y015907D01*
X015970Y015748D02*
X015689Y015748D01*
X015793Y015590D02*
X015970Y015590D01*
X015970Y015431D02*
X015830Y015431D01*
X015818Y015273D02*
X015970Y015273D01*
X015970Y015114D02*
X015751Y015114D01*
X015563Y014956D02*
X015970Y014956D01*
X016180Y014750D02*
X015830Y014400D01*
X016180Y014750D02*
X016180Y015900D01*
X015680Y016400D01*
X013080Y016400D01*
X012380Y015700D01*
X012909Y015114D02*
X009930Y015114D01*
X009680Y015300D02*
X009880Y015500D01*
X009880Y016026D01*
X009501Y016382D02*
X008790Y016382D01*
X008790Y016224D02*
X009455Y016224D01*
X009455Y016065D02*
X008790Y016065D01*
X008790Y015907D02*
X009455Y015907D01*
X009455Y015748D02*
X008790Y015748D01*
X008790Y015590D02*
X009574Y015590D01*
X009401Y015431D02*
X008790Y015431D01*
X008790Y015273D02*
X009372Y015273D01*
X009430Y015114D02*
X008802Y015114D01*
X008888Y014956D02*
X013097Y014956D01*
X013500Y014797D02*
X009037Y014797D01*
X009195Y014639D02*
X012452Y014639D01*
X012293Y014480D02*
X011614Y014480D01*
X011812Y014322D02*
X012135Y014322D01*
X011976Y014163D02*
X011870Y014163D01*
X011750Y013688D02*
X010146Y013688D01*
X010280Y013846D02*
X010574Y013846D01*
X010305Y013529D02*
X011750Y013529D01*
X012410Y013529D02*
X012558Y013529D01*
X012569Y013552D02*
X012535Y013484D01*
X012512Y013412D01*
X012500Y013338D01*
X012500Y013020D01*
X012960Y013020D01*
X012960Y013780D01*
X012942Y013780D01*
X012868Y013768D01*
X012796Y013745D01*
X012728Y013711D01*
X012667Y013666D01*
X012614Y013613D01*
X012569Y013552D01*
X012697Y013688D02*
X012434Y013688D01*
X012593Y013846D02*
X013959Y013846D01*
X013792Y013688D02*
X013263Y013688D01*
X013293Y013666D02*
X013232Y013711D01*
X013164Y013745D01*
X013092Y013768D01*
X013018Y013780D01*
X013000Y013780D01*
X013000Y013020D01*
X012960Y013020D01*
X012960Y012980D01*
X012500Y012980D01*
X012500Y012662D01*
X012512Y012588D01*
X012535Y012516D01*
X012569Y012448D01*
X012614Y012387D01*
X012667Y012334D01*
X012728Y012289D01*
X012796Y012255D01*
X012868Y012232D01*
X012942Y012220D01*
X012960Y012220D01*
X012960Y012980D01*
X013000Y012980D01*
X013000Y013020D01*
X013460Y013020D01*
X013460Y013338D01*
X013448Y013412D01*
X013425Y013484D01*
X013391Y013552D01*
X013346Y013613D01*
X013293Y013666D01*
X013402Y013529D02*
X013609Y013529D01*
X013550Y013371D02*
X013455Y013371D01*
X013460Y013212D02*
X013550Y013212D01*
X013550Y013054D02*
X013460Y013054D01*
X013460Y012980D02*
X013000Y012980D01*
X013000Y012220D01*
X013018Y012220D01*
X013092Y012232D01*
X013164Y012255D01*
X013232Y012289D01*
X013293Y012334D01*
X013346Y012387D01*
X013391Y012448D01*
X013425Y012516D01*
X013448Y012588D01*
X013460Y012662D01*
X013460Y012980D01*
X013460Y012895D02*
X013550Y012895D01*
X013550Y012737D02*
X013460Y012737D01*
X013445Y012578D02*
X013565Y012578D01*
X013652Y012420D02*
X013370Y012420D01*
X013176Y012261D02*
X018100Y012261D01*
X018100Y012103D02*
X012410Y012103D01*
X012410Y012261D02*
X012784Y012261D01*
X012960Y012261D02*
X013000Y012261D01*
X013000Y012420D02*
X012960Y012420D01*
X012960Y012578D02*
X013000Y012578D01*
X013000Y012737D02*
X012960Y012737D01*
X012960Y012895D02*
X013000Y012895D01*
X013000Y013054D02*
X012960Y013054D01*
X012960Y013212D02*
X013000Y013212D01*
X013000Y013371D02*
X012960Y013371D01*
X012960Y013529D02*
X013000Y013529D01*
X013000Y013688D02*
X012960Y013688D01*
X012751Y014005D02*
X013518Y014005D01*
X013563Y014956D02*
X013569Y014956D01*
X013818Y015273D02*
X013842Y015273D01*
X013830Y015431D02*
X013830Y015431D01*
X013793Y015590D02*
X013867Y015590D01*
X013971Y015748D02*
X013689Y015748D01*
X013042Y016065D02*
X015718Y016065D01*
X015995Y016382D02*
X018100Y016382D01*
X018100Y016224D02*
X016153Y016224D01*
X016312Y016065D02*
X018100Y016065D01*
X018100Y015907D02*
X016390Y015907D01*
X016390Y015748D02*
X018100Y015748D01*
X018100Y015590D02*
X016390Y015590D01*
X016390Y015431D02*
X018100Y015431D01*
X018100Y015273D02*
X016390Y015273D01*
X016390Y015114D02*
X018100Y015114D01*
X018100Y014956D02*
X016390Y014956D01*
X016390Y014797D02*
X018100Y014797D01*
X018100Y014639D02*
X016366Y014639D01*
X016330Y014480D02*
X018100Y014480D01*
X018100Y014322D02*
X016330Y014322D01*
X016273Y014163D02*
X018100Y014163D01*
X018100Y014005D02*
X016142Y014005D01*
X015518Y014005D02*
X015142Y014005D01*
X015273Y014163D02*
X015387Y014163D01*
X015330Y014322D02*
X015330Y014322D01*
X015330Y014480D02*
X015330Y014480D01*
X015272Y014639D02*
X015388Y014639D01*
X015344Y014797D02*
X015520Y014797D01*
X014842Y015273D02*
X014818Y015273D01*
X014830Y015431D02*
X014830Y015431D01*
X014793Y015590D02*
X014867Y015590D01*
X014971Y015748D02*
X014689Y015748D01*
X015836Y016541D02*
X018100Y016541D01*
X018100Y016699D02*
X010305Y016699D01*
X010305Y016541D02*
X012924Y016541D01*
X012971Y017175D02*
X016189Y017175D01*
X016116Y017205D02*
X016417Y017080D01*
X016743Y017080D01*
X017044Y017205D01*
X017275Y017436D01*
X017400Y017737D01*
X017400Y018063D01*
X017275Y018364D01*
X017044Y018595D01*
X016743Y018720D01*
X016417Y018720D01*
X016116Y018595D01*
X015885Y018364D01*
X015760Y018063D01*
X015760Y017737D01*
X015885Y017436D01*
X016116Y017205D01*
X015987Y017333D02*
X013173Y017333D01*
X013298Y017492D02*
X015862Y017492D01*
X015796Y017650D02*
X013364Y017650D01*
X013400Y017809D02*
X015760Y017809D01*
X015760Y017967D02*
X013400Y017967D01*
X013374Y018126D02*
X015786Y018126D01*
X015852Y018284D02*
X013308Y018284D01*
X013197Y018443D02*
X015963Y018443D01*
X016130Y018601D02*
X013030Y018601D01*
X012130Y018601D02*
X008180Y018601D01*
X008180Y018760D02*
X018100Y018760D01*
X018100Y018918D02*
X008180Y018918D01*
X008180Y019077D02*
X018100Y019077D01*
X018100Y019235D02*
X008180Y019235D01*
X008180Y019394D02*
X018100Y019394D01*
X018100Y019552D02*
X008180Y019552D01*
X009090Y018284D02*
X009470Y018284D01*
X009395Y018126D02*
X009165Y018126D01*
X009165Y017967D02*
X009395Y017967D01*
X009395Y017809D02*
X009165Y017809D01*
X009165Y017650D02*
X009395Y017650D01*
X009395Y017492D02*
X009165Y017492D01*
X009107Y017333D02*
X009453Y017333D01*
X009455Y017016D02*
X008790Y017016D01*
X008790Y016858D02*
X009455Y016858D01*
X009455Y016699D02*
X008790Y016699D01*
X008790Y016541D02*
X009455Y016541D01*
X009880Y016774D02*
X009880Y017800D01*
X009840Y017800D01*
X009670Y017175D02*
X008790Y017175D01*
X008370Y016699D02*
X008172Y016699D01*
X008182Y016541D02*
X008370Y016541D01*
X008370Y016382D02*
X008182Y016382D01*
X008182Y016224D02*
X008370Y016224D01*
X008370Y016065D02*
X008138Y016065D01*
X008177Y015907D02*
X008370Y015907D01*
X008370Y015748D02*
X008182Y015748D01*
X008182Y015590D02*
X008370Y015590D01*
X008370Y015431D02*
X008182Y015431D01*
X008132Y015273D02*
X008370Y015273D01*
X008358Y015114D02*
X008182Y015114D01*
X008106Y015191D01*
X007210Y015191D01*
X007134Y015114D01*
X006691Y015114D01*
X006690Y014956D02*
X007134Y014956D01*
X007134Y015114D02*
X007134Y014534D01*
X007210Y014458D01*
X008106Y014458D01*
X008182Y014534D01*
X008182Y015114D01*
X008182Y014956D02*
X008272Y014956D01*
X008289Y014797D02*
X008182Y014797D01*
X008182Y014639D02*
X008406Y014639D01*
X008646Y014480D02*
X008127Y014480D01*
X008106Y014403D02*
X007210Y014403D01*
X007134Y014327D01*
X007134Y013747D01*
X007210Y013671D01*
X008106Y013671D01*
X008182Y013747D01*
X008182Y014327D01*
X008106Y014403D01*
X008182Y014322D02*
X008805Y014322D01*
X008963Y014163D02*
X008182Y014163D01*
X008182Y014005D02*
X009122Y014005D01*
X009280Y013846D02*
X008182Y013846D01*
X008122Y013688D02*
X009439Y013688D01*
X009597Y013529D02*
X008182Y013529D01*
X008182Y013371D02*
X009756Y013371D01*
X009914Y013212D02*
X008182Y013212D01*
X008182Y013054D02*
X009930Y013054D01*
X009930Y012895D02*
X008621Y012895D01*
X008641Y012875D02*
X008555Y012961D01*
X008441Y013008D01*
X008319Y013008D01*
X008205Y012961D01*
X008119Y012875D01*
X008100Y012828D01*
X007210Y012828D01*
X007134Y012752D01*
X007134Y012172D01*
X007210Y012096D01*
X008106Y012096D01*
X008182Y012172D01*
X008182Y012252D01*
X008229Y012252D01*
X008369Y012392D01*
X008441Y012392D01*
X008555Y012439D01*
X008641Y012525D01*
X008688Y012639D01*
X008688Y012761D01*
X008641Y012875D01*
X008688Y012737D02*
X009930Y012737D01*
X009669Y012578D02*
X008663Y012578D01*
X008508Y012420D02*
X009505Y012420D01*
X009450Y012261D02*
X008238Y012261D01*
X008231Y012060D02*
X008159Y011988D01*
X008106Y012041D01*
X007210Y012041D01*
X007134Y011965D01*
X007134Y011385D01*
X007210Y011309D01*
X008106Y011309D01*
X008158Y011361D01*
X008186Y011333D01*
X008174Y011326D01*
X008141Y011292D01*
X008135Y011283D01*
X008121Y011291D01*
X008075Y011304D01*
X007696Y011304D01*
X007696Y010926D01*
X008232Y010926D01*
X008232Y010974D01*
X008532Y010974D01*
X008532Y010878D01*
X008628Y010878D01*
X008628Y010974D01*
X009055Y010974D01*
X009055Y011206D01*
X009043Y011251D01*
X009019Y011292D01*
X008986Y011326D01*
X008974Y011333D01*
X009005Y011364D01*
X009005Y011984D01*
X008929Y012060D01*
X008231Y012060D01*
X008112Y012103D02*
X009455Y012103D01*
X009528Y011944D02*
X009005Y011944D01*
X009005Y011786D02*
X009757Y011786D01*
X009794Y011630D02*
X009636Y011565D01*
X009515Y011444D01*
X009450Y011286D01*
X009450Y011114D01*
X009515Y010956D01*
X009636Y010835D01*
X009794Y010770D01*
X010566Y010770D01*
X010724Y010835D01*
X010845Y010956D01*
X010910Y011114D01*
X010910Y011286D01*
X010845Y011444D01*
X010724Y011565D01*
X010566Y011630D01*
X009794Y011630D01*
X009787Y011627D02*
X009005Y011627D01*
X009005Y011469D02*
X009540Y011469D01*
X009460Y011310D02*
X009002Y011310D01*
X009055Y011152D02*
X009450Y011152D01*
X009500Y010993D02*
X009055Y010993D01*
X009055Y010878D02*
X009055Y010646D01*
X009043Y010601D01*
X009019Y010560D01*
X008986Y010526D01*
X008945Y010502D01*
X008899Y010490D01*
X008628Y010490D01*
X008628Y010878D01*
X009055Y010878D01*
X009055Y010835D02*
X009639Y010835D01*
X009794Y010630D02*
X009636Y010565D01*
X009515Y010444D01*
X009450Y010286D01*
X009450Y010114D01*
X009515Y009956D01*
X009636Y009835D01*
X009794Y009770D01*
X010566Y009770D01*
X010724Y009835D01*
X010845Y009956D01*
X010910Y010114D01*
X010910Y010286D01*
X010845Y010444D01*
X010724Y010565D01*
X010566Y010630D01*
X009794Y010630D01*
X009589Y010518D02*
X008971Y010518D01*
X009055Y010676D02*
X011170Y010676D01*
X011170Y010618D02*
X011170Y011004D01*
X011182Y011049D01*
X011206Y011091D01*
X011239Y011124D01*
X011281Y011148D01*
X011326Y011160D01*
X011712Y011160D01*
X011712Y010618D01*
X011748Y010618D01*
X011748Y011160D01*
X012134Y011160D01*
X012179Y011148D01*
X012221Y011124D01*
X012254Y011091D01*
X012278Y011049D01*
X012290Y011004D01*
X012290Y010618D01*
X011748Y010618D01*
X011748Y010582D01*
X012290Y010582D01*
X012290Y010196D01*
X012278Y010151D01*
X012254Y010109D01*
X012221Y010076D01*
X012179Y010052D01*
X012134Y010040D01*
X011748Y010040D01*
X011748Y010582D01*
X011712Y010582D01*
X011712Y010040D01*
X011326Y010040D01*
X011281Y010052D01*
X011239Y010076D01*
X011206Y010109D01*
X011182Y010151D01*
X011170Y010196D01*
X011170Y010582D01*
X011712Y010582D01*
X011712Y010618D01*
X011170Y010618D01*
X011170Y010518D02*
X010771Y010518D01*
X010880Y010359D02*
X011170Y010359D01*
X011170Y010201D02*
X010910Y010201D01*
X010880Y010042D02*
X011319Y010042D01*
X010772Y009884D02*
X013630Y009884D01*
X013471Y010042D02*
X012141Y010042D01*
X012290Y010201D02*
X013313Y010201D01*
X013154Y010359D02*
X012290Y010359D01*
X012290Y010518D02*
X012996Y010518D01*
X012837Y010676D02*
X012290Y010676D01*
X012290Y010835D02*
X012679Y010835D01*
X012520Y010993D02*
X012290Y010993D01*
X012362Y011152D02*
X012165Y011152D01*
X012203Y011310D02*
X010900Y011310D01*
X010910Y011152D02*
X011295Y011152D01*
X011170Y010993D02*
X010860Y010993D01*
X010721Y010835D02*
X011170Y010835D01*
X010820Y011469D02*
X012045Y011469D01*
X011886Y011627D02*
X010573Y011627D01*
X010603Y011786D02*
X011770Y011786D01*
X011750Y011944D02*
X010832Y011944D01*
X010905Y012103D02*
X011750Y012103D01*
X011750Y012261D02*
X010910Y012261D01*
X010855Y012420D02*
X011750Y012420D01*
X011750Y012578D02*
X010691Y012578D01*
X010706Y012737D02*
X010430Y012737D01*
X010430Y012895D02*
X010541Y012895D01*
X010490Y013054D02*
X010430Y013054D01*
X010430Y013212D02*
X010503Y013212D01*
X010421Y013371D02*
X010591Y013371D01*
X009889Y014163D02*
X009671Y014163D01*
X009512Y014322D02*
X010062Y014322D01*
X010746Y014480D02*
X009354Y014480D01*
X008580Y014900D02*
X008580Y017660D01*
X008720Y017800D01*
X007658Y016399D02*
X007179Y016399D01*
X006880Y016100D01*
X006080Y015300D01*
X006080Y008200D01*
X005480Y007600D01*
X003880Y007600D01*
X003485Y007823D02*
X003275Y007823D01*
X003330Y007665D02*
X003430Y007665D01*
X003432Y007506D02*
X003328Y007506D01*
X003262Y007348D02*
X003498Y007348D01*
X003580Y007100D02*
X003380Y007100D01*
X002880Y006600D01*
X003283Y006397D02*
X003477Y006397D01*
X003430Y006555D02*
X003330Y006555D01*
X003320Y006714D02*
X003440Y006714D01*
X003449Y006872D02*
X003516Y006872D01*
X003172Y007189D02*
X003064Y007189D01*
X002880Y007600D02*
X002880Y009500D01*
X003980Y010600D01*
X004175Y010359D02*
X005870Y010359D01*
X005870Y010201D02*
X003877Y010201D01*
X003719Y010042D02*
X005870Y010042D01*
X005870Y009884D02*
X003560Y009884D01*
X003402Y009725D02*
X005870Y009725D01*
X005870Y009567D02*
X003243Y009567D01*
X003090Y009408D02*
X005870Y009408D01*
X005870Y009250D02*
X003090Y009250D01*
X003090Y009091D02*
X005870Y009091D01*
X005870Y008933D02*
X003090Y008933D01*
X003090Y008774D02*
X005870Y008774D01*
X005870Y008616D02*
X003090Y008616D01*
X003090Y008457D02*
X005870Y008457D01*
X005870Y008299D02*
X003090Y008299D01*
X003090Y008140D02*
X005723Y008140D01*
X005565Y007982D02*
X004135Y007982D01*
X004275Y007823D02*
X005406Y007823D01*
X005480Y007100D02*
X004180Y007100D01*
X004244Y006872D02*
X005355Y006872D01*
X005197Y006714D02*
X004320Y006714D01*
X004330Y006555D02*
X005038Y006555D01*
X005080Y006300D02*
X005080Y006274D01*
X004880Y006074D01*
X005080Y006300D02*
X006880Y008100D01*
X006880Y011200D01*
X006880Y012900D01*
X006880Y013000D01*
X007130Y013250D01*
X007658Y013250D01*
X008117Y012895D02*
X008139Y012895D01*
X008380Y012700D02*
X008142Y012462D01*
X007658Y012462D01*
X007134Y012420D02*
X007090Y012420D01*
X007090Y012578D02*
X007134Y012578D01*
X007134Y012737D02*
X007090Y012737D01*
X007170Y012895D02*
X007199Y012895D01*
X006954Y013371D02*
X006690Y013371D01*
X006690Y013529D02*
X007134Y013529D01*
X007194Y013688D02*
X006690Y013688D01*
X006690Y013846D02*
X007134Y013846D01*
X007134Y014005D02*
X006690Y014005D01*
X006690Y014163D02*
X007134Y014163D01*
X007134Y014322D02*
X006690Y014322D01*
X006690Y014480D02*
X007189Y014480D01*
X007134Y014639D02*
X006690Y014639D01*
X006690Y014797D02*
X007134Y014797D01*
X007183Y015273D02*
X006988Y015273D01*
X007085Y015431D02*
X007134Y015431D01*
X006980Y015700D02*
X006780Y015500D01*
X006480Y015200D01*
X006480Y008100D01*
X005480Y007100D01*
X005790Y006714D02*
X006914Y006714D01*
X006925Y006725D02*
X006649Y006449D01*
X006500Y006089D01*
X006500Y005699D01*
X006649Y005339D01*
X006925Y005063D01*
X007285Y004914D01*
X007675Y004914D01*
X008035Y005063D01*
X008311Y005339D01*
X008460Y005699D01*
X008460Y006089D01*
X008311Y006449D01*
X008035Y006725D01*
X007675Y006874D01*
X007285Y006874D01*
X006925Y006725D01*
X006755Y006555D02*
X005632Y006555D01*
X005473Y006397D02*
X006628Y006397D01*
X006562Y006238D02*
X005315Y006238D01*
X005305Y006080D02*
X006500Y006080D01*
X006500Y005921D02*
X005305Y005921D01*
X005304Y005763D02*
X006500Y005763D01*
X006539Y005604D02*
X005305Y005604D01*
X005305Y005446D02*
X006605Y005446D01*
X006701Y005287D02*
X005305Y005287D01*
X005305Y005129D02*
X006859Y005129D01*
X007149Y004970D02*
X005259Y004970D01*
X004880Y005326D02*
X004160Y004606D01*
X004160Y004490D01*
X001600Y004490D01*
X001126Y004653D02*
X000460Y004653D01*
X000460Y004495D02*
X001100Y004495D01*
X001123Y004336D02*
X000460Y004336D01*
X000460Y004178D02*
X001205Y004178D01*
X001431Y004019D02*
X000460Y004019D01*
X000460Y003861D02*
X006504Y003861D01*
X006489Y003817D02*
X006527Y003926D01*
X006577Y004031D01*
X006639Y004128D01*
X006711Y004219D01*
X006793Y004301D01*
X006883Y004373D01*
X006981Y004434D01*
X007085Y004485D01*
X007194Y004523D01*
X007307Y004549D01*
X007400Y004559D01*
X007400Y003612D01*
X007560Y003612D01*
X007560Y004559D01*
X007653Y004549D01*
X007766Y004523D01*
X007875Y004485D01*
X007979Y004434D01*
X008077Y004373D01*
X008167Y004301D01*
X008249Y004219D01*
X008321Y004128D01*
X008383Y004031D01*
X008433Y003926D01*
X008471Y003817D01*
X008497Y003704D01*
X008508Y003611D01*
X007560Y003611D01*
X007560Y003451D01*
X007560Y002504D01*
X007653Y002514D01*
X007766Y002540D01*
X007875Y002578D01*
X007979Y002629D01*
X008077Y002690D01*
X008167Y002762D01*
X008249Y002844D01*
X008321Y002935D01*
X008383Y003032D01*
X008433Y003137D01*
X008471Y003246D01*
X008497Y003359D01*
X008508Y003451D01*
X007560Y003451D01*
X007400Y003451D01*
X007400Y002504D01*
X007307Y002514D01*
X007194Y002540D01*
X007085Y002578D01*
X006981Y002629D01*
X006883Y002690D01*
X006793Y002762D01*
X006711Y002844D01*
X006639Y002935D01*
X006577Y003032D01*
X006527Y003137D01*
X006489Y003246D01*
X006463Y003359D01*
X006452Y003451D01*
X007400Y003451D01*
X007400Y003611D01*
X006452Y003611D01*
X006463Y003704D01*
X006489Y003817D01*
X006463Y003702D02*
X000460Y003702D01*
X000460Y003544D02*
X007400Y003544D01*
X007400Y003702D02*
X007560Y003702D01*
X007560Y003544D02*
X011181Y003544D01*
X011182Y003549D02*
X011170Y003504D01*
X011170Y003118D01*
X011712Y003118D01*
X011712Y003660D01*
X011326Y003660D01*
X011281Y003648D01*
X011239Y003624D01*
X011206Y003591D01*
X011182Y003549D01*
X011170Y003385D02*
X008500Y003385D01*
X008465Y003227D02*
X011170Y003227D01*
X011170Y003082D02*
X011170Y002696D01*
X011182Y002651D01*
X011206Y002609D01*
X011239Y002576D01*
X011281Y002552D01*
X011326Y002540D01*
X011712Y002540D01*
X011712Y003082D01*
X011748Y003082D01*
X011748Y003118D01*
X011712Y003118D01*
X011712Y003082D01*
X011170Y003082D01*
X011170Y003068D02*
X008400Y003068D01*
X008301Y002910D02*
X011170Y002910D01*
X011170Y002751D02*
X008153Y002751D01*
X007904Y002593D02*
X011223Y002593D01*
X011712Y002593D02*
X011748Y002593D01*
X011748Y002540D02*
X012134Y002540D01*
X012179Y002552D01*
X012221Y002576D01*
X012254Y002609D01*
X012278Y002651D01*
X012290Y002696D01*
X012290Y003082D01*
X011748Y003082D01*
X011748Y002540D01*
X011748Y002751D02*
X011712Y002751D01*
X011712Y002910D02*
X011748Y002910D01*
X011748Y003068D02*
X011712Y003068D01*
X011748Y003118D02*
X012290Y003118D01*
X012290Y003504D01*
X012278Y003549D01*
X012254Y003591D01*
X012221Y003624D01*
X012179Y003648D01*
X012134Y003660D01*
X011748Y003660D01*
X011748Y003118D01*
X011748Y003227D02*
X011712Y003227D01*
X011712Y003385D02*
X011748Y003385D01*
X011748Y003544D02*
X011712Y003544D01*
X012279Y003544D02*
X016480Y003544D01*
X016470Y003385D02*
X012290Y003385D01*
X012290Y003227D02*
X016470Y003227D01*
X016470Y003068D02*
X012290Y003068D01*
X012290Y002910D02*
X016470Y002910D01*
X016470Y002751D02*
X012290Y002751D01*
X012237Y002593D02*
X016544Y002593D01*
X017416Y002593D02*
X018100Y002593D01*
X018100Y002751D02*
X017490Y002751D01*
X017490Y002910D02*
X018100Y002910D01*
X018100Y003068D02*
X017490Y003068D01*
X017490Y003227D02*
X018100Y003227D01*
X018100Y003385D02*
X017490Y003385D01*
X017480Y003544D02*
X018100Y003544D01*
X018100Y003702D02*
X017310Y003702D01*
X017310Y003861D02*
X018100Y003861D01*
X018100Y004019D02*
X017310Y004019D01*
X017310Y004178D02*
X018100Y004178D01*
X018100Y004336D02*
X017310Y004336D01*
X017310Y004495D02*
X018100Y004495D01*
X018100Y004653D02*
X017310Y004653D01*
X017310Y004812D02*
X018100Y004812D01*
X018100Y004970D02*
X017310Y004970D01*
X017310Y005129D02*
X018100Y005129D01*
X018100Y005287D02*
X017310Y005287D01*
X017310Y005446D02*
X018100Y005446D01*
X018100Y005604D02*
X017310Y005604D01*
X017310Y005763D02*
X018100Y005763D01*
X018100Y005921D02*
X017310Y005921D01*
X017310Y006080D02*
X018100Y006080D01*
X018100Y006238D02*
X017310Y006238D01*
X017310Y006397D02*
X018100Y006397D01*
X018100Y006555D02*
X017310Y006555D01*
X017310Y006714D02*
X018100Y006714D01*
X018100Y006872D02*
X017310Y006872D01*
X017310Y007031D02*
X018100Y007031D01*
X018100Y007189D02*
X017258Y007189D01*
X017099Y007348D02*
X018100Y007348D01*
X018100Y007506D02*
X016941Y007506D01*
X016782Y007665D02*
X018100Y007665D01*
X018100Y007823D02*
X016624Y007823D01*
X016465Y007982D02*
X018100Y007982D01*
X018100Y008140D02*
X016307Y008140D01*
X016148Y008299D02*
X018100Y008299D01*
X018100Y008457D02*
X015990Y008457D01*
X015831Y008616D02*
X018100Y008616D01*
X018100Y008774D02*
X015673Y008774D01*
X015514Y008933D02*
X018100Y008933D01*
X018100Y009091D02*
X015356Y009091D01*
X015197Y009250D02*
X018100Y009250D01*
X018100Y009408D02*
X015039Y009408D01*
X014880Y009567D02*
X018100Y009567D01*
X018100Y009725D02*
X014722Y009725D01*
X014563Y009884D02*
X018100Y009884D01*
X018100Y010042D02*
X014405Y010042D01*
X014246Y010201D02*
X016470Y010201D01*
X016470Y010166D02*
X016546Y010090D01*
X017414Y010090D01*
X017490Y010166D01*
X017490Y011034D01*
X017414Y011110D01*
X016546Y011110D01*
X016470Y011034D01*
X016470Y010166D01*
X016470Y010359D02*
X014088Y010359D01*
X013929Y010518D02*
X016470Y010518D01*
X016470Y010676D02*
X013771Y010676D01*
X013612Y010835D02*
X016470Y010835D01*
X016470Y010993D02*
X013454Y010993D01*
X013295Y011152D02*
X018100Y011152D01*
X018100Y011310D02*
X013137Y011310D01*
X012978Y011469D02*
X018100Y011469D01*
X018100Y011627D02*
X012820Y011627D01*
X012661Y011786D02*
X018100Y011786D01*
X018100Y011944D02*
X012503Y011944D01*
X012590Y012420D02*
X012410Y012420D01*
X012410Y012578D02*
X012515Y012578D01*
X012500Y012737D02*
X012410Y012737D01*
X012410Y012895D02*
X012500Y012895D01*
X012500Y013054D02*
X012410Y013054D01*
X012410Y013212D02*
X012500Y013212D01*
X012505Y013371D02*
X012410Y013371D01*
X011750Y012737D02*
X011654Y012737D01*
X011712Y011152D02*
X011748Y011152D01*
X011748Y010993D02*
X011712Y010993D01*
X011712Y010835D02*
X011748Y010835D01*
X011748Y010676D02*
X011712Y010676D01*
X011712Y010518D02*
X011748Y010518D01*
X011748Y010359D02*
X011712Y010359D01*
X011712Y010201D02*
X011748Y010201D01*
X011748Y010042D02*
X011712Y010042D01*
X010732Y008877D02*
X010569Y008945D01*
X010391Y008945D01*
X010228Y008877D01*
X010103Y008752D01*
X010035Y008589D01*
X010035Y008411D01*
X010103Y008248D01*
X010228Y008123D01*
X010391Y008055D01*
X010569Y008055D01*
X010732Y008123D01*
X010857Y008248D01*
X010925Y008411D01*
X010925Y008589D01*
X010857Y008752D01*
X010732Y008877D01*
X010599Y008933D02*
X014581Y008933D01*
X014422Y009091D02*
X007090Y009091D01*
X007090Y008933D02*
X010361Y008933D01*
X010125Y008774D02*
X007090Y008774D01*
X007090Y008616D02*
X010046Y008616D01*
X010035Y008457D02*
X007090Y008457D01*
X007090Y008299D02*
X010082Y008299D01*
X010211Y008140D02*
X007090Y008140D01*
X007058Y007982D02*
X010261Y007982D01*
X010275Y007995D02*
X009985Y007705D01*
X009985Y007500D01*
X010480Y007500D01*
X010480Y007500D01*
X010480Y007995D01*
X010685Y007995D01*
X010975Y007705D01*
X010975Y007500D01*
X010480Y007500D01*
X010480Y007500D01*
X010480Y007500D01*
X010480Y007995D01*
X010275Y007995D01*
X010480Y007982D02*
X010480Y007982D01*
X010480Y007823D02*
X010480Y007823D01*
X010480Y007665D02*
X010480Y007665D01*
X010480Y007506D02*
X010480Y007506D01*
X010480Y007500D02*
X009985Y007500D01*
X009985Y007295D01*
X010275Y007005D01*
X010480Y007005D01*
X010685Y007005D01*
X010975Y007295D01*
X010975Y007500D01*
X010480Y007500D01*
X010480Y007005D01*
X010480Y007500D01*
X010480Y007500D01*
X010480Y007348D02*
X010480Y007348D01*
X010480Y007189D02*
X010480Y007189D01*
X010480Y007031D02*
X010480Y007031D01*
X010711Y007031D02*
X016483Y007031D01*
X016324Y007189D02*
X010869Y007189D01*
X010975Y007348D02*
X016166Y007348D01*
X016007Y007506D02*
X010975Y007506D01*
X010975Y007665D02*
X015849Y007665D01*
X015690Y007823D02*
X010857Y007823D01*
X010699Y007982D02*
X015532Y007982D01*
X015373Y008140D02*
X010749Y008140D01*
X010878Y008299D02*
X015215Y008299D01*
X015056Y008457D02*
X010925Y008457D01*
X010914Y008616D02*
X014898Y008616D01*
X014739Y008774D02*
X010835Y008774D01*
X010103Y007823D02*
X006900Y007823D01*
X006741Y007665D02*
X009985Y007665D01*
X009985Y007506D02*
X006583Y007506D01*
X006424Y007348D02*
X009985Y007348D01*
X010091Y007189D02*
X006266Y007189D01*
X006107Y007031D02*
X010249Y007031D01*
X009503Y005730D02*
X009410Y005740D01*
X009410Y004793D01*
X009250Y004793D01*
X009250Y005740D01*
X009158Y005730D01*
X009045Y005704D01*
X008936Y005666D01*
X008831Y005615D01*
X008733Y005554D01*
X008643Y005482D01*
X008561Y005400D01*
X008489Y005310D01*
X008427Y005212D01*
X008377Y005107D01*
X008339Y004998D01*
X008313Y004885D01*
X008303Y004793D01*
X009250Y004793D01*
X009250Y004633D01*
X008303Y004633D01*
X008313Y004540D01*
X008339Y004427D01*
X008377Y004318D01*
X008427Y004214D01*
X008489Y004116D01*
X008561Y004025D01*
X008643Y003943D01*
X008733Y003871D01*
X008831Y003810D01*
X008936Y003760D01*
X009045Y003721D01*
X009158Y003696D01*
X009250Y003685D01*
X009250Y004633D01*
X009410Y004633D01*
X009410Y004793D01*
X010358Y004793D01*
X010347Y004885D01*
X010322Y004998D01*
X010283Y005107D01*
X010233Y005212D01*
X010172Y005310D01*
X010100Y005400D01*
X010018Y005482D01*
X009927Y005554D01*
X009829Y005615D01*
X009725Y005666D01*
X009616Y005704D01*
X009503Y005730D01*
X009410Y005604D02*
X009250Y005604D01*
X009250Y005446D02*
X009410Y005446D01*
X009410Y005287D02*
X009250Y005287D01*
X009250Y005129D02*
X009410Y005129D01*
X009410Y004970D02*
X009250Y004970D01*
X009250Y004812D02*
X009410Y004812D01*
X009410Y004653D02*
X016650Y004653D01*
X016650Y004495D02*
X010337Y004495D01*
X010347Y004540D02*
X010358Y004633D01*
X009410Y004633D01*
X009410Y003685D01*
X009503Y003696D01*
X009616Y003721D01*
X009725Y003760D01*
X009829Y003810D01*
X009927Y003871D01*
X010018Y003943D01*
X010100Y004025D01*
X010172Y004116D01*
X010233Y004214D01*
X010283Y004318D01*
X010322Y004427D01*
X010347Y004540D01*
X010290Y004336D02*
X016650Y004336D01*
X016650Y004178D02*
X010211Y004178D01*
X010093Y004019D02*
X016650Y004019D01*
X016650Y003861D02*
X009910Y003861D01*
X009531Y003702D02*
X016650Y003702D01*
X016650Y004812D02*
X010356Y004812D01*
X010328Y004970D02*
X016650Y004970D01*
X016650Y005129D02*
X010273Y005129D01*
X010186Y005287D02*
X016650Y005287D01*
X016650Y005446D02*
X010054Y005446D01*
X009848Y005604D02*
X016650Y005604D01*
X016650Y005763D02*
X008460Y005763D01*
X008460Y005921D02*
X016650Y005921D01*
X016650Y006080D02*
X008460Y006080D01*
X008398Y006238D02*
X016650Y006238D01*
X016650Y006397D02*
X008332Y006397D01*
X008205Y006555D02*
X016650Y006555D01*
X016650Y006714D02*
X008046Y006714D01*
X007679Y006872D02*
X016641Y006872D01*
X014264Y009250D02*
X007090Y009250D01*
X007090Y009408D02*
X014105Y009408D01*
X013947Y009567D02*
X007090Y009567D01*
X007090Y009725D02*
X013788Y009725D01*
X014894Y012270D02*
X015066Y012270D01*
X015224Y012335D01*
X015345Y012456D01*
X015410Y012614D01*
X015410Y013386D01*
X015345Y013544D01*
X015224Y013665D01*
X015066Y013730D01*
X014894Y013730D01*
X014736Y013665D01*
X014615Y013544D01*
X014550Y013386D01*
X014550Y012614D01*
X014615Y012456D01*
X014736Y012335D01*
X014894Y012270D01*
X014652Y012420D02*
X014308Y012420D01*
X014395Y012578D02*
X014565Y012578D01*
X014550Y012737D02*
X014410Y012737D01*
X014410Y012895D02*
X014550Y012895D01*
X014550Y013054D02*
X014410Y013054D01*
X014410Y013212D02*
X014550Y013212D01*
X014550Y013371D02*
X014417Y013371D01*
X014576Y013529D02*
X014609Y013529D01*
X014734Y013688D02*
X014792Y013688D01*
X014893Y013846D02*
X018100Y013846D01*
X018100Y013688D02*
X015168Y013688D01*
X015351Y013529D02*
X018100Y013529D01*
X018100Y013371D02*
X015410Y013371D01*
X015410Y013212D02*
X018100Y013212D01*
X018100Y013054D02*
X015410Y013054D01*
X015410Y012895D02*
X018100Y012895D01*
X018100Y012737D02*
X015410Y012737D01*
X015395Y012578D02*
X018100Y012578D01*
X018100Y012420D02*
X015308Y012420D01*
X017490Y010993D02*
X018100Y010993D01*
X018100Y010835D02*
X017490Y010835D01*
X017490Y010676D02*
X018100Y010676D01*
X018100Y010518D02*
X017490Y010518D01*
X017490Y010359D02*
X018100Y010359D01*
X018100Y010201D02*
X017490Y010201D01*
X018100Y016858D02*
X010305Y016858D01*
X010305Y017016D02*
X018100Y017016D01*
X018100Y017175D02*
X016971Y017175D01*
X017173Y017333D02*
X018100Y017333D01*
X018100Y017492D02*
X017298Y017492D01*
X017364Y017650D02*
X018100Y017650D01*
X018100Y017809D02*
X017400Y017809D01*
X017400Y017967D02*
X018100Y017967D01*
X018100Y018126D02*
X017374Y018126D01*
X017308Y018284D02*
X018100Y018284D01*
X018100Y018443D02*
X017197Y018443D01*
X017030Y018601D02*
X018100Y018601D01*
X009480Y010359D02*
X007090Y010359D01*
X007090Y010201D02*
X009450Y010201D01*
X009480Y010042D02*
X007090Y010042D01*
X007090Y009884D02*
X009588Y009884D01*
X008628Y010518D02*
X008532Y010518D01*
X008532Y010676D02*
X008628Y010676D01*
X008628Y010835D02*
X008532Y010835D01*
X008189Y010518D02*
X008173Y010518D01*
X007696Y010518D02*
X007620Y010518D01*
X007620Y010676D02*
X007696Y010676D01*
X007696Y010835D02*
X007620Y010835D01*
X007620Y010993D02*
X007696Y010993D01*
X007696Y011152D02*
X007620Y011152D01*
X008107Y011310D02*
X008158Y011310D01*
X008580Y011675D02*
X007658Y011675D01*
X007134Y011627D02*
X007090Y011627D01*
X007090Y011469D02*
X007134Y011469D01*
X007168Y011310D02*
X007209Y011310D01*
X007134Y011786D02*
X007090Y011786D01*
X007090Y011944D02*
X007134Y011944D01*
X007090Y012103D02*
X007204Y012103D01*
X007134Y012261D02*
X007090Y012261D01*
X005870Y012261D02*
X005056Y012261D01*
X005088Y012420D02*
X005870Y012420D01*
X005870Y012578D02*
X005038Y012578D01*
X004780Y012400D02*
X004380Y012400D01*
X004280Y012500D01*
X004530Y012737D02*
X005870Y012737D01*
X005870Y012895D02*
X004530Y012895D01*
X004587Y013054D02*
X005870Y013054D01*
X005870Y013212D02*
X004746Y013212D01*
X004904Y013371D02*
X005870Y013371D01*
X005870Y013529D02*
X005063Y013529D01*
X005221Y013688D02*
X005870Y013688D01*
X005870Y013846D02*
X005380Y013846D01*
X005538Y014005D02*
X005870Y014005D01*
X005870Y014163D02*
X005694Y014163D01*
X005730Y014322D02*
X005870Y014322D01*
X005870Y014480D02*
X005730Y014480D01*
X005730Y014639D02*
X005870Y014639D01*
X005870Y014797D02*
X005771Y014797D01*
X005788Y014956D02*
X005870Y014956D01*
X005870Y015114D02*
X005702Y015114D01*
X005258Y015114D02*
X003502Y015114D01*
X003588Y014956D02*
X005172Y014956D01*
X005189Y014797D02*
X003571Y014797D01*
X003454Y014639D02*
X005230Y014639D01*
X005230Y014480D02*
X001749Y014480D01*
X001804Y014322D02*
X005148Y014322D01*
X004989Y014163D02*
X003946Y014163D01*
X003988Y014005D02*
X004831Y014005D01*
X004672Y013846D02*
X003950Y013846D01*
X003680Y014000D02*
X001317Y014000D01*
X001280Y014037D01*
X001744Y013688D02*
X004514Y013688D01*
X004355Y013529D02*
X003560Y013529D01*
X003713Y013371D02*
X004197Y013371D01*
X004056Y013212D02*
X003738Y013212D01*
X003669Y013054D02*
X004030Y013054D01*
X004030Y012895D02*
X001739Y012895D01*
X001804Y012737D02*
X004030Y012737D01*
X004030Y012578D02*
X001804Y012578D01*
X001804Y012420D02*
X004030Y012420D01*
X004030Y012261D02*
X001804Y012261D01*
X001734Y012103D02*
X003929Y012103D01*
X003770Y011944D02*
X001804Y011944D01*
X001804Y011786D02*
X003612Y011786D01*
X003453Y011627D02*
X001804Y011627D01*
X001804Y011469D02*
X003295Y011469D01*
X003136Y011310D02*
X001729Y011310D01*
X001804Y011152D02*
X002978Y011152D01*
X003368Y010835D02*
X003779Y010835D01*
X003678Y010676D02*
X003193Y010676D01*
X003527Y010993D02*
X005870Y010993D01*
X005870Y010835D02*
X004181Y010835D01*
X004282Y010676D02*
X005870Y010676D01*
X005870Y010518D02*
X004279Y010518D01*
X003685Y011152D02*
X005870Y011152D01*
X005870Y011310D02*
X003844Y011310D01*
X004002Y011469D02*
X005870Y011469D01*
X005870Y011627D02*
X004161Y011627D01*
X004319Y011786D02*
X005870Y011786D01*
X005870Y011944D02*
X004478Y011944D01*
X004530Y012103D02*
X004693Y012103D01*
X004867Y012103D02*
X005870Y012103D01*
X007090Y010518D02*
X007143Y010518D01*
X008580Y011675D02*
X008580Y011674D01*
X007658Y015612D02*
X007658Y015678D01*
X007680Y015700D01*
X006980Y015700D01*
X006548Y016065D02*
X003090Y016065D01*
X003109Y015907D02*
X006390Y015907D01*
X006231Y015748D02*
X003188Y015748D01*
X003168Y015590D02*
X006073Y015590D01*
X006598Y016224D02*
X002953Y016224D01*
X002795Y016382D02*
X006756Y016382D01*
X007024Y016541D02*
X002636Y016541D01*
X002481Y016399D02*
X002880Y016000D01*
X002880Y015700D01*
X002651Y015907D02*
X001799Y015907D01*
X001804Y015748D02*
X002572Y015748D01*
X002592Y015590D02*
X001804Y015590D01*
X001804Y015431D02*
X002724Y015431D01*
X002518Y016065D02*
X001760Y016065D01*
X001280Y016399D02*
X002481Y016399D01*
X001794Y016699D02*
X007144Y016699D01*
X003430Y013250D02*
X001280Y013250D01*
X001804Y013529D02*
X003299Y013529D01*
X003204Y014824D02*
X003280Y014900D01*
X003204Y014824D02*
X001280Y014824D01*
X001728Y015191D02*
X001804Y015114D01*
X003135Y007982D02*
X003625Y007982D01*
X004283Y006397D02*
X004467Y006397D01*
X004455Y006238D02*
X004154Y006238D01*
X004455Y006080D02*
X000460Y006080D01*
X000460Y006238D02*
X001535Y006238D01*
X001423Y006397D02*
X000460Y006397D01*
X000460Y006555D02*
X001381Y006555D01*
X001392Y006714D02*
X000460Y006714D01*
X000460Y006872D02*
X001460Y006872D01*
X001624Y007031D02*
X000460Y007031D01*
X000460Y007189D02*
X001696Y007189D01*
X001871Y007031D02*
X001889Y007031D01*
X001889Y006872D02*
X001871Y006872D01*
X001871Y006714D02*
X001889Y006714D01*
X001498Y007348D02*
X000460Y007348D01*
X000460Y007506D02*
X001432Y007506D01*
X001430Y007665D02*
X000460Y007665D01*
X000460Y007823D02*
X001485Y007823D01*
X003154Y006238D02*
X003606Y006238D01*
X004455Y005921D02*
X000460Y005921D01*
X000460Y005763D02*
X004456Y005763D01*
X004455Y005604D02*
X000460Y005604D01*
X000460Y005446D02*
X004455Y005446D01*
X004455Y005287D02*
X000460Y005287D01*
X000460Y005129D02*
X004386Y005129D01*
X004012Y004970D02*
X001748Y004970D01*
X001986Y004812D02*
X003774Y004812D01*
X003765Y004178D02*
X001995Y004178D01*
X001769Y004019D02*
X003991Y004019D01*
X004329Y004019D02*
X006572Y004019D01*
X006678Y004178D02*
X004555Y004178D01*
X004637Y004336D02*
X006837Y004336D01*
X007114Y004495D02*
X004660Y004495D01*
X004634Y004653D02*
X009250Y004653D01*
X009250Y004495D02*
X009410Y004495D01*
X009410Y004336D02*
X009250Y004336D01*
X009250Y004178D02*
X009410Y004178D01*
X009410Y004019D02*
X009250Y004019D01*
X009250Y003861D02*
X009410Y003861D01*
X009410Y003702D02*
X009250Y003702D01*
X009129Y003702D02*
X008497Y003702D01*
X008456Y003861D02*
X008751Y003861D01*
X008567Y004019D02*
X008388Y004019D01*
X008450Y004178D02*
X008282Y004178D01*
X008371Y004336D02*
X008123Y004336D01*
X008324Y004495D02*
X007846Y004495D01*
X007560Y004495D02*
X007400Y004495D01*
X007400Y004336D02*
X007560Y004336D01*
X007560Y004178D02*
X007400Y004178D01*
X007400Y004019D02*
X007560Y004019D01*
X007560Y003861D02*
X007400Y003861D01*
X007400Y003385D02*
X007560Y003385D01*
X007560Y003227D02*
X007400Y003227D01*
X007400Y003068D02*
X007560Y003068D01*
X007560Y002910D02*
X007400Y002910D01*
X007400Y002751D02*
X007560Y002751D01*
X007560Y002593D02*
X007400Y002593D01*
X007056Y002593D02*
X004698Y002593D01*
X004696Y002581D02*
X004710Y002667D01*
X004710Y002690D01*
X004180Y002690D01*
X004180Y002730D01*
X004710Y002730D01*
X004710Y002753D01*
X004696Y002839D01*
X004670Y002921D01*
X004630Y002998D01*
X004580Y003068D01*
X006560Y003068D01*
X006495Y003227D02*
X004350Y003227D01*
X004371Y003220D02*
X004289Y003246D01*
X004203Y003260D01*
X004180Y003260D01*
X004180Y002730D01*
X004140Y002730D01*
X004140Y003260D01*
X004117Y003260D01*
X004031Y003246D01*
X003949Y003220D01*
X003872Y003180D01*
X003802Y003130D01*
X003740Y003068D01*
X002020Y003068D01*
X001958Y003130D01*
X001888Y003180D01*
X001811Y003220D01*
X001729Y003246D01*
X001643Y003260D01*
X001620Y003260D01*
X001620Y002730D01*
X002150Y002730D01*
X002150Y002753D01*
X002136Y002839D01*
X002110Y002921D01*
X002070Y002998D01*
X002020Y003068D01*
X002113Y002910D02*
X003647Y002910D01*
X003650Y002921D02*
X003624Y002839D01*
X003610Y002753D01*
X003610Y002730D01*
X004140Y002730D01*
X004140Y002690D01*
X004180Y002690D01*
X004180Y002160D01*
X004203Y002160D01*
X004289Y002174D01*
X004371Y002200D01*
X004448Y002240D01*
X004518Y002290D01*
X004580Y002352D01*
X004630Y002422D01*
X004670Y002499D01*
X004696Y002581D01*
X004637Y002434D02*
X018100Y002434D01*
X018100Y002276D02*
X004498Y002276D01*
X004180Y002276D02*
X004140Y002276D01*
X004140Y002160D02*
X004140Y002690D01*
X003610Y002690D01*
X003610Y002667D01*
X003624Y002581D01*
X003650Y002499D01*
X003690Y002422D01*
X003740Y002352D01*
X003802Y002290D01*
X003872Y002240D01*
X003949Y002200D01*
X004031Y002174D01*
X004117Y002160D01*
X004140Y002160D01*
X004140Y002434D02*
X004180Y002434D01*
X004180Y002593D02*
X004140Y002593D01*
X004140Y002751D02*
X004180Y002751D01*
X004180Y002910D02*
X004140Y002910D01*
X004140Y003068D02*
X004180Y003068D01*
X004180Y003227D02*
X004140Y003227D01*
X003970Y003227D02*
X001790Y003227D01*
X001620Y003227D02*
X001580Y003227D01*
X001580Y003260D02*
X001557Y003260D01*
X001471Y003246D01*
X001389Y003220D01*
X001312Y003180D01*
X001242Y003130D01*
X001180Y003068D01*
X000460Y003068D01*
X000460Y002910D02*
X001087Y002910D01*
X001090Y002921D02*
X001064Y002839D01*
X001050Y002753D01*
X001050Y002730D01*
X001580Y002730D01*
X001580Y003260D01*
X001410Y003227D02*
X000460Y003227D01*
X000460Y003385D02*
X006460Y003385D01*
X006659Y002910D02*
X004673Y002910D01*
X004710Y002751D02*
X006807Y002751D01*
X008305Y004812D02*
X004663Y004812D01*
X004371Y003220D02*
X004448Y003180D01*
X004518Y003130D01*
X004580Y003068D01*
X003740Y003068D02*
X003690Y002998D01*
X003650Y002921D01*
X003610Y002751D02*
X002150Y002751D01*
X002150Y002690D02*
X001620Y002690D01*
X001620Y002730D01*
X001580Y002730D01*
X001580Y002690D01*
X001620Y002690D01*
X001620Y002160D01*
X001643Y002160D01*
X001729Y002174D01*
X001811Y002200D01*
X001888Y002240D01*
X001958Y002290D01*
X002020Y002352D01*
X002070Y002422D01*
X002110Y002499D01*
X002136Y002581D01*
X002150Y002667D01*
X002150Y002690D01*
X002138Y002593D02*
X003622Y002593D01*
X003683Y002434D02*
X002077Y002434D01*
X001938Y002276D02*
X003822Y002276D01*
X001620Y002276D02*
X001580Y002276D01*
X001580Y002160D02*
X001580Y002690D01*
X001050Y002690D01*
X001050Y002667D01*
X001064Y002581D01*
X001090Y002499D01*
X001130Y002422D01*
X001180Y002352D01*
X001242Y002290D01*
X001312Y002240D01*
X001389Y002200D01*
X001471Y002174D01*
X001557Y002160D01*
X001580Y002160D01*
X001580Y002434D02*
X001620Y002434D01*
X001620Y002593D02*
X001580Y002593D01*
X001580Y002751D02*
X001620Y002751D01*
X001620Y002910D02*
X001580Y002910D01*
X001580Y003068D02*
X001620Y003068D01*
X001180Y003068D02*
X001130Y002998D01*
X001090Y002921D01*
X001050Y002751D02*
X000460Y002751D01*
X000460Y002593D02*
X001062Y002593D01*
X001123Y002434D02*
X000460Y002434D01*
X000460Y002276D02*
X001262Y002276D01*
X000460Y002117D02*
X018100Y002117D01*
X008813Y005604D02*
X008421Y005604D01*
X008355Y005446D02*
X008607Y005446D01*
X008475Y005287D02*
X008259Y005287D01*
X008387Y005129D02*
X008101Y005129D01*
X008333Y004970D02*
X007811Y004970D01*
X007281Y006872D02*
X005949Y006872D01*
X001452Y004970D02*
X000460Y004970D01*
X000460Y004812D02*
X001214Y004812D01*
D23*
X001280Y009100D03*
X010980Y018800D03*
X017280Y012600D03*
X014380Y002800D03*
D24*
X013580Y004500D03*
X015980Y006500D03*
X012780Y007900D03*
X013380Y011400D03*
X011180Y011800D03*
X012180Y014700D03*
X012380Y015700D03*
X012380Y016700D03*
X010980Y016900D03*
X009680Y015300D03*
X008580Y014900D03*
X006880Y014400D03*
X006780Y015500D03*
X006880Y016100D03*
X005480Y014900D03*
X004780Y013000D03*
X004780Y012400D03*
X004580Y011300D03*
X003980Y010600D03*
X003380Y012600D03*
X003430Y013250D03*
X003680Y014000D03*
X003280Y014400D03*
X003280Y014900D03*
X003480Y015300D03*
X002880Y015700D03*
X003180Y016400D03*
X002080Y015600D03*
X002180Y012500D03*
X003380Y008300D03*
X005280Y008200D03*
X006380Y006700D03*
X006380Y004900D03*
X003980Y005300D03*
X002880Y003600D03*
X001280Y005500D03*
X006880Y011200D03*
X007580Y009800D03*
X008780Y008700D03*
X008380Y012700D03*
X006880Y013000D03*
X009180Y016800D03*
X014580Y016900D03*
X014780Y016000D03*
X015580Y018900D03*
X010480Y003200D03*
D25*
X003080Y010900D02*
X004280Y012100D01*
X004280Y012500D01*
X004280Y013100D01*
X005480Y014300D01*
X005480Y014900D01*
X008580Y014900D02*
X009780Y013700D01*
X010180Y014100D01*
X011180Y014100D01*
X010180Y013300D02*
X010180Y012200D01*
X010180Y013300D02*
X009780Y013700D01*
X008580Y017600D02*
X008720Y017800D01*
X003080Y010900D02*
X001293Y010900D01*
X001280Y010887D01*
D26*
X003580Y007100D02*
X004180Y007100D01*
D27*
X012080Y011900D02*
X016980Y007000D01*
X016980Y003100D01*
X012080Y011900D02*
X012080Y013800D01*
X012680Y014400D01*
X013830Y014400D01*
X013830Y014750D01*
X014280Y015200D01*
X014280Y015350D01*
X014330Y015400D01*
X014880Y014800D02*
X014880Y014450D01*
X014830Y014400D01*
X014830Y014250D01*
X014080Y013500D01*
X014080Y013100D01*
X013980Y013000D01*
X014880Y014800D02*
X015330Y015250D01*
X015330Y015400D01*
M02*
