G75*
G70*
%OFA0B0*%
%FSLAX24Y24*%
%IPPOS*%
%LPD*%
%AMOC8*
5,1,8,0,0,1.08239X$1,22.5*
%
%ADD10C,0.0000*%
%ADD11C,0.0780*%
%ADD12C,0.1320*%
%ADD13R,0.0800X0.0800*%
%ADD14OC8,0.0670*%
%ADD15C,0.0670*%
%ADD16C,0.1740*%
%ADD17R,0.0434X0.0591*%
%ADD18R,0.0552X0.0631*%
%ADD19C,0.0600*%
%ADD20C,0.0640*%
%ADD21C,0.0680*%
%ADD22C,0.1700*%
D10*
X000280Y001800D02*
X000280Y019800D01*
X018280Y019800D01*
X018280Y001800D01*
X000280Y001800D01*
X011940Y017900D02*
X011942Y017950D01*
X011948Y018000D01*
X011958Y018049D01*
X011971Y018098D01*
X011989Y018145D01*
X012010Y018191D01*
X012034Y018234D01*
X012062Y018276D01*
X012093Y018316D01*
X012127Y018353D01*
X012164Y018387D01*
X012204Y018418D01*
X012246Y018446D01*
X012289Y018470D01*
X012335Y018491D01*
X012382Y018509D01*
X012431Y018522D01*
X012480Y018532D01*
X012530Y018538D01*
X012580Y018540D01*
X012630Y018538D01*
X012680Y018532D01*
X012729Y018522D01*
X012778Y018509D01*
X012825Y018491D01*
X012871Y018470D01*
X012914Y018446D01*
X012956Y018418D01*
X012996Y018387D01*
X013033Y018353D01*
X013067Y018316D01*
X013098Y018276D01*
X013126Y018234D01*
X013150Y018191D01*
X013171Y018145D01*
X013189Y018098D01*
X013202Y018049D01*
X013212Y018000D01*
X013218Y017950D01*
X013220Y017900D01*
X013218Y017850D01*
X013212Y017800D01*
X013202Y017751D01*
X013189Y017702D01*
X013171Y017655D01*
X013150Y017609D01*
X013126Y017566D01*
X013098Y017524D01*
X013067Y017484D01*
X013033Y017447D01*
X012996Y017413D01*
X012956Y017382D01*
X012914Y017354D01*
X012871Y017330D01*
X012825Y017309D01*
X012778Y017291D01*
X012729Y017278D01*
X012680Y017268D01*
X012630Y017262D01*
X012580Y017260D01*
X012530Y017262D01*
X012480Y017268D01*
X012431Y017278D01*
X012382Y017291D01*
X012335Y017309D01*
X012289Y017330D01*
X012246Y017354D01*
X012204Y017382D01*
X012164Y017413D01*
X012127Y017447D01*
X012093Y017484D01*
X012062Y017524D01*
X012034Y017566D01*
X012010Y017609D01*
X011989Y017655D01*
X011971Y017702D01*
X011958Y017751D01*
X011948Y017800D01*
X011942Y017850D01*
X011940Y017900D01*
X015940Y017900D02*
X015942Y017950D01*
X015948Y018000D01*
X015958Y018049D01*
X015971Y018098D01*
X015989Y018145D01*
X016010Y018191D01*
X016034Y018234D01*
X016062Y018276D01*
X016093Y018316D01*
X016127Y018353D01*
X016164Y018387D01*
X016204Y018418D01*
X016246Y018446D01*
X016289Y018470D01*
X016335Y018491D01*
X016382Y018509D01*
X016431Y018522D01*
X016480Y018532D01*
X016530Y018538D01*
X016580Y018540D01*
X016630Y018538D01*
X016680Y018532D01*
X016729Y018522D01*
X016778Y018509D01*
X016825Y018491D01*
X016871Y018470D01*
X016914Y018446D01*
X016956Y018418D01*
X016996Y018387D01*
X017033Y018353D01*
X017067Y018316D01*
X017098Y018276D01*
X017126Y018234D01*
X017150Y018191D01*
X017171Y018145D01*
X017189Y018098D01*
X017202Y018049D01*
X017212Y018000D01*
X017218Y017950D01*
X017220Y017900D01*
X017218Y017850D01*
X017212Y017800D01*
X017202Y017751D01*
X017189Y017702D01*
X017171Y017655D01*
X017150Y017609D01*
X017126Y017566D01*
X017098Y017524D01*
X017067Y017484D01*
X017033Y017447D01*
X016996Y017413D01*
X016956Y017382D01*
X016914Y017354D01*
X016871Y017330D01*
X016825Y017309D01*
X016778Y017291D01*
X016729Y017278D01*
X016680Y017268D01*
X016630Y017262D01*
X016580Y017260D01*
X016530Y017262D01*
X016480Y017268D01*
X016431Y017278D01*
X016382Y017291D01*
X016335Y017309D01*
X016289Y017330D01*
X016246Y017354D01*
X016204Y017382D01*
X016164Y017413D01*
X016127Y017447D01*
X016093Y017484D01*
X016062Y017524D01*
X016034Y017566D01*
X016010Y017609D01*
X015989Y017655D01*
X015971Y017702D01*
X015958Y017751D01*
X015948Y017800D01*
X015942Y017850D01*
X015940Y017900D01*
D11*
X015330Y015400D03*
X014330Y015400D03*
X013830Y014400D03*
X014830Y014400D03*
X015830Y014400D03*
X013330Y015400D03*
X004160Y004490D03*
X004160Y002710D03*
X001600Y002710D03*
X001600Y004490D03*
D12*
X012580Y017900D03*
X016580Y017900D03*
D13*
X016980Y010600D03*
X011730Y010600D03*
X011730Y003100D03*
X016980Y003100D03*
D14*
X010480Y007500D03*
D15*
X010480Y008500D03*
D16*
X007480Y005894D03*
X009330Y004713D03*
X007480Y003531D03*
D17*
X006254Y009667D03*
X005506Y009667D03*
X005880Y010533D03*
X003254Y009667D03*
X002506Y009667D03*
X002880Y010533D03*
D18*
X004006Y009700D03*
X004754Y009700D03*
X004754Y008800D03*
X004006Y008800D03*
X005506Y012200D03*
X006254Y012200D03*
X006254Y013000D03*
X005506Y013000D03*
X004854Y014900D03*
X004854Y015700D03*
X004106Y015700D03*
X004106Y014900D03*
X004106Y016500D03*
X004854Y016500D03*
X014206Y011800D03*
X014954Y011800D03*
X014954Y011000D03*
X014206Y011000D03*
D19*
X011460Y013100D02*
X010900Y013100D01*
X010900Y014100D02*
X011460Y014100D01*
D20*
X012980Y013300D02*
X012980Y012700D01*
X013980Y012700D02*
X013980Y013300D01*
X014980Y013300D02*
X014980Y012700D01*
X010480Y012200D02*
X009880Y012200D01*
X009880Y011200D02*
X010480Y011200D01*
X010480Y010200D02*
X009880Y010200D01*
D21*
X003880Y007600D03*
X003880Y006600D03*
X002880Y006600D03*
X002880Y007600D03*
X001880Y007600D03*
X001880Y006600D03*
D22*
X001280Y009100D03*
X010980Y018800D03*
X017280Y012600D03*
X014380Y002800D03*
M02*
