%
M48
M72
T01C0.0236
T02C0.0320
T03C0.0354
T04C0.0360
T05C0.0394
T06C0.0400
T07C0.1180
T08C0.1260
T09C0.1280
%
T01
X3180Y16400
X2880Y15700
X3480Y15300
X3280Y14900
X3280Y14400
X3680Y14000
X3430Y13250
X3380Y12600
X4580Y11300
X3980Y10600
X4780Y12400
X4780Y13000
X5480Y14900
X6780Y15500
X6880Y16100
X6880Y14400
X6880Y13000
X8380Y12700
X6880Y11200
X7580Y9800
X8780Y8700
X6380Y6700
X5280Y8200
X3380Y8300
X1280Y5500
X2880Y3600
X3980Y5300
X6380Y4900
X10480Y3200
X13580Y4500
X15980Y6500
X12780Y7900
X13380Y11400
X11180Y11800
X12180Y14700
X12380Y15700
X12380Y16700
X10980Y16900
X9680Y15300
X8580Y14900
X9180Y16800
X14580Y16900
X14780Y16000
X15580Y18900
X2080Y15600
X2180Y12500
T02
X10480Y8500
X10480Y7500
T03
X1880Y7600
X1880Y6600
X2880Y6600
X2880Y7600
X3880Y7600
X3880Y6600
T04
X11180Y14100
X11180Y13100
T05
X11730Y10600
X16980Y10600
X11730Y3100
X16980Y3100
T06
X1600Y2710
X1600Y4490
X4160Y4490
X4160Y2710
X10180Y10200
X10180Y11200
X10180Y12200
X12980Y13000
X13980Y13000
X14980Y13000
X14830Y14400
X13830Y14400
X13330Y15400
X14330Y15400
X15330Y15400
X15830Y14400
T07
X7480Y5894
X9330Y4713
X7480Y3531
T08
X1280Y9100
X10980Y18800
X17280Y12600
X14380Y2800
T09
X12580Y17900
X16580Y17900
M30
