G75*
G70*
%OFA0B0*%
%FSLAX24Y24*%
%IPPOS*%
%LPD*%
%AMOC8*
5,1,8,0,0,1.08239X$1,22.5*
%
%ADD10C,0.0000*%
%ADD11C,0.0080*%
%ADD12C,0.0150*%
%ADD13C,0.0059*%
D10*
X000280Y001800D02*
X000280Y019800D01*
X018280Y019800D01*
X018280Y001800D01*
X000280Y001800D01*
X011940Y017900D02*
X011942Y017950D01*
X011948Y018000D01*
X011958Y018049D01*
X011971Y018098D01*
X011989Y018145D01*
X012010Y018191D01*
X012034Y018234D01*
X012062Y018276D01*
X012093Y018316D01*
X012127Y018353D01*
X012164Y018387D01*
X012204Y018418D01*
X012246Y018446D01*
X012289Y018470D01*
X012335Y018491D01*
X012382Y018509D01*
X012431Y018522D01*
X012480Y018532D01*
X012530Y018538D01*
X012580Y018540D01*
X012630Y018538D01*
X012680Y018532D01*
X012729Y018522D01*
X012778Y018509D01*
X012825Y018491D01*
X012871Y018470D01*
X012914Y018446D01*
X012956Y018418D01*
X012996Y018387D01*
X013033Y018353D01*
X013067Y018316D01*
X013098Y018276D01*
X013126Y018234D01*
X013150Y018191D01*
X013171Y018145D01*
X013189Y018098D01*
X013202Y018049D01*
X013212Y018000D01*
X013218Y017950D01*
X013220Y017900D01*
X013218Y017850D01*
X013212Y017800D01*
X013202Y017751D01*
X013189Y017702D01*
X013171Y017655D01*
X013150Y017609D01*
X013126Y017566D01*
X013098Y017524D01*
X013067Y017484D01*
X013033Y017447D01*
X012996Y017413D01*
X012956Y017382D01*
X012914Y017354D01*
X012871Y017330D01*
X012825Y017309D01*
X012778Y017291D01*
X012729Y017278D01*
X012680Y017268D01*
X012630Y017262D01*
X012580Y017260D01*
X012530Y017262D01*
X012480Y017268D01*
X012431Y017278D01*
X012382Y017291D01*
X012335Y017309D01*
X012289Y017330D01*
X012246Y017354D01*
X012204Y017382D01*
X012164Y017413D01*
X012127Y017447D01*
X012093Y017484D01*
X012062Y017524D01*
X012034Y017566D01*
X012010Y017609D01*
X011989Y017655D01*
X011971Y017702D01*
X011958Y017751D01*
X011948Y017800D01*
X011942Y017850D01*
X011940Y017900D01*
X015940Y017900D02*
X015942Y017950D01*
X015948Y018000D01*
X015958Y018049D01*
X015971Y018098D01*
X015989Y018145D01*
X016010Y018191D01*
X016034Y018234D01*
X016062Y018276D01*
X016093Y018316D01*
X016127Y018353D01*
X016164Y018387D01*
X016204Y018418D01*
X016246Y018446D01*
X016289Y018470D01*
X016335Y018491D01*
X016382Y018509D01*
X016431Y018522D01*
X016480Y018532D01*
X016530Y018538D01*
X016580Y018540D01*
X016630Y018538D01*
X016680Y018532D01*
X016729Y018522D01*
X016778Y018509D01*
X016825Y018491D01*
X016871Y018470D01*
X016914Y018446D01*
X016956Y018418D01*
X016996Y018387D01*
X017033Y018353D01*
X017067Y018316D01*
X017098Y018276D01*
X017126Y018234D01*
X017150Y018191D01*
X017171Y018145D01*
X017189Y018098D01*
X017202Y018049D01*
X017212Y018000D01*
X017218Y017950D01*
X017220Y017900D01*
X017218Y017850D01*
X017212Y017800D01*
X017202Y017751D01*
X017189Y017702D01*
X017171Y017655D01*
X017150Y017609D01*
X017126Y017566D01*
X017098Y017524D01*
X017067Y017484D01*
X017033Y017447D01*
X016996Y017413D01*
X016956Y017382D01*
X016914Y017354D01*
X016871Y017330D01*
X016825Y017309D01*
X016778Y017291D01*
X016729Y017278D01*
X016680Y017268D01*
X016630Y017262D01*
X016580Y017260D01*
X016530Y017262D01*
X016480Y017268D01*
X016431Y017278D01*
X016382Y017291D01*
X016335Y017309D01*
X016289Y017330D01*
X016246Y017354D01*
X016204Y017382D01*
X016164Y017413D01*
X016127Y017447D01*
X016093Y017484D01*
X016062Y017524D01*
X016034Y017566D01*
X016010Y017609D01*
X015989Y017655D01*
X015971Y017702D01*
X015958Y017751D01*
X015948Y017800D01*
X015942Y017850D01*
X015940Y017900D01*
D11*
X015840Y012331D02*
X015840Y012050D01*
X015630Y012050D01*
X015700Y012191D01*
X015700Y012261D01*
X015630Y012331D01*
X015490Y012331D01*
X015420Y012261D01*
X015420Y012120D01*
X015490Y012050D01*
X015420Y011870D02*
X015560Y011730D01*
X015560Y011800D02*
X015560Y011590D01*
X015420Y011590D02*
X015840Y011590D01*
X015840Y011800D01*
X015770Y011870D01*
X015630Y011870D01*
X015560Y011800D01*
X015560Y011131D02*
X015630Y011061D01*
X015630Y010850D01*
X015490Y010850D01*
X015420Y010920D01*
X015420Y011061D01*
X015490Y011131D01*
X015560Y011131D01*
X015770Y010991D02*
X015630Y010850D01*
X015630Y010670D02*
X015560Y010600D01*
X015560Y010390D01*
X015420Y010390D02*
X015840Y010390D01*
X015840Y010600D01*
X015770Y010670D01*
X015630Y010670D01*
X015560Y010530D02*
X015420Y010670D01*
X015770Y010991D02*
X015840Y011131D01*
X009523Y018960D02*
X009203Y018960D01*
X009007Y019040D02*
X008927Y018960D01*
X008767Y018960D01*
X008687Y019040D01*
X008687Y019120D01*
X008767Y019200D01*
X008927Y019200D01*
X009007Y019280D01*
X009007Y019360D01*
X008927Y019440D01*
X008767Y019440D01*
X008687Y019360D01*
X008492Y019440D02*
X008251Y019440D01*
X008171Y019360D01*
X008171Y019200D01*
X008251Y019120D01*
X008492Y019120D01*
X008492Y018960D02*
X008492Y019440D01*
X007976Y019360D02*
X007976Y019280D01*
X007896Y019200D01*
X007736Y019200D01*
X007656Y019120D01*
X007656Y019040D01*
X007736Y018960D01*
X007896Y018960D01*
X007976Y019040D01*
X007976Y019120D01*
X007896Y019200D01*
X007736Y019200D02*
X007656Y019280D01*
X007656Y019360D01*
X007736Y019440D01*
X007896Y019440D01*
X007976Y019360D01*
X007460Y019360D02*
X007380Y019440D01*
X007220Y019440D01*
X007140Y019360D01*
X007140Y019280D01*
X007460Y018960D01*
X007140Y018960D01*
X006945Y019040D02*
X006945Y019200D01*
X006705Y019200D01*
X006624Y019120D01*
X006624Y019040D01*
X006705Y018960D01*
X006865Y018960D01*
X006945Y019040D01*
X006945Y019200D02*
X006785Y019360D01*
X006624Y019440D01*
X006429Y019200D02*
X006189Y019200D01*
X006109Y019120D01*
X006109Y019040D01*
X006189Y018960D01*
X006349Y018960D01*
X006429Y019040D01*
X006429Y019200D01*
X006269Y019360D01*
X006109Y019440D01*
X005398Y019440D02*
X005398Y018960D01*
X005078Y018960D01*
X004882Y018960D02*
X004562Y018960D01*
X004367Y018960D02*
X004126Y018960D01*
X004046Y019040D01*
X004046Y019360D01*
X004126Y019440D01*
X004367Y019440D01*
X004367Y018960D01*
X004722Y019200D02*
X004882Y019200D01*
X004882Y019440D02*
X004882Y018960D01*
X004882Y019440D02*
X004562Y019440D01*
X003335Y019280D02*
X003175Y018960D01*
X003015Y019280D01*
X002820Y019360D02*
X002820Y019040D01*
X002499Y019360D01*
X002499Y019040D01*
X002579Y018960D01*
X002740Y018960D01*
X002820Y019040D01*
X002820Y019360D02*
X002740Y019440D01*
X002579Y019440D01*
X002499Y019360D01*
X002304Y019040D02*
X002224Y019040D01*
X002224Y018960D01*
X002304Y018960D01*
X002304Y019040D01*
X002046Y018960D02*
X001726Y018960D01*
X001886Y018960D02*
X001886Y019440D01*
X002046Y019280D01*
X001531Y019040D02*
X001450Y019040D01*
X001450Y018960D01*
X001531Y018960D01*
X001531Y019040D01*
X001273Y019040D02*
X001273Y019360D01*
X001193Y019440D01*
X001033Y019440D01*
X000952Y019360D01*
X001273Y019040D01*
X001193Y018960D01*
X001033Y018960D01*
X000952Y019040D01*
X000952Y019360D01*
X005420Y016590D02*
X005420Y016520D01*
X005490Y016450D01*
X005420Y016380D01*
X005420Y016310D01*
X005490Y016240D01*
X005630Y016240D01*
X005700Y016310D01*
X005881Y016310D02*
X005951Y016240D01*
X006091Y016240D01*
X006161Y016310D01*
X006161Y016590D01*
X006091Y016660D01*
X005951Y016660D01*
X005881Y016590D01*
X005700Y016590D02*
X005630Y016660D01*
X005490Y016660D01*
X005420Y016590D01*
X005490Y016450D02*
X005560Y016450D01*
X005540Y015860D02*
X005470Y015790D01*
X005750Y015510D01*
X005680Y015440D01*
X005540Y015440D01*
X005470Y015510D01*
X005470Y015790D01*
X005540Y015860D02*
X005680Y015860D01*
X005750Y015790D01*
X005750Y015510D01*
X005931Y015440D02*
X006211Y015440D01*
X006071Y015440D02*
X006071Y015860D01*
X006211Y015720D01*
X006391Y015650D02*
X006461Y015580D01*
X006671Y015580D01*
X006531Y015580D02*
X006391Y015440D01*
X006391Y015650D02*
X006391Y015790D01*
X006461Y015860D01*
X006671Y015860D01*
X006671Y015440D01*
X006671Y015060D02*
X006461Y015060D01*
X006391Y014990D01*
X006391Y014850D01*
X006461Y014780D01*
X006671Y014780D01*
X006531Y014780D02*
X006391Y014640D01*
X006211Y014640D02*
X005931Y014640D01*
X006071Y014640D02*
X006071Y015060D01*
X006211Y014920D01*
X006671Y015060D02*
X006671Y014640D01*
X005750Y014640D02*
X005470Y014640D01*
X005610Y014640D02*
X005610Y015060D01*
X005750Y014920D01*
X004990Y013260D02*
X004780Y013260D01*
X004710Y013190D01*
X004710Y013050D01*
X004780Y012980D01*
X004990Y012980D01*
X004990Y012840D02*
X004990Y013260D01*
X004850Y012980D02*
X004710Y012840D01*
X004530Y012910D02*
X004530Y012980D01*
X004460Y013050D01*
X004319Y013050D01*
X004249Y012980D01*
X004249Y012910D01*
X004319Y012840D01*
X004460Y012840D01*
X004530Y012910D01*
X004460Y013050D02*
X004530Y013120D01*
X004530Y013190D01*
X004460Y013260D01*
X004319Y013260D01*
X004249Y013190D01*
X004249Y013120D01*
X004319Y013050D01*
X004340Y010560D02*
X004480Y010560D01*
X004550Y010490D01*
X004731Y010490D02*
X004731Y010350D01*
X004801Y010280D01*
X005011Y010280D01*
X005011Y010140D02*
X005011Y010560D01*
X004801Y010560D01*
X004731Y010490D01*
X004871Y010280D02*
X004731Y010140D01*
X004550Y010140D02*
X004270Y010420D01*
X004270Y010490D01*
X004340Y010560D01*
X004270Y010140D02*
X004550Y010140D01*
X004680Y008360D02*
X004610Y008290D01*
X004610Y008150D01*
X004680Y008080D01*
X004890Y008080D01*
X004890Y007940D02*
X004890Y008360D01*
X004680Y008360D01*
X004750Y008080D02*
X004610Y007940D01*
X004430Y008010D02*
X004360Y007940D01*
X004219Y007940D01*
X004149Y008010D01*
X004149Y008080D01*
X004219Y008150D01*
X004289Y008150D01*
X004219Y008150D02*
X004149Y008220D01*
X004149Y008290D01*
X004219Y008360D01*
X004360Y008360D01*
X004430Y008290D01*
X006549Y010290D02*
X006830Y010290D01*
X006689Y010290D02*
X006689Y010710D01*
X006830Y010570D01*
X007010Y010710D02*
X007290Y010710D01*
X007150Y010710D02*
X007150Y010290D01*
X007210Y011940D02*
X007350Y012080D01*
X007280Y012080D02*
X007490Y012080D01*
X007490Y011940D02*
X007490Y012360D01*
X007280Y012360D01*
X007210Y012290D01*
X007210Y012150D01*
X007280Y012080D01*
X007030Y012010D02*
X006960Y011940D01*
X006819Y011940D01*
X006749Y012010D01*
X006749Y012290D01*
X006819Y012360D01*
X006960Y012360D01*
X007030Y012290D01*
X007030Y012220D01*
X006960Y012150D01*
X006749Y012150D01*
X002190Y010710D02*
X001910Y010710D01*
X002050Y010710D02*
X002050Y010290D01*
X001730Y010290D02*
X001449Y010570D01*
X001449Y010640D01*
X001519Y010710D01*
X001660Y010710D01*
X001730Y010640D01*
X001730Y010290D02*
X001449Y010290D01*
X009363Y019200D02*
X009523Y019200D01*
X009523Y019440D02*
X009523Y018960D01*
X009523Y019440D02*
X009203Y019440D01*
D12*
X009260Y018342D02*
X009118Y018200D01*
X008977Y018342D01*
X008835Y018200D01*
X008835Y017775D01*
X009118Y017775D02*
X009118Y018200D01*
X009260Y018342D02*
X009402Y018342D01*
X009402Y017775D01*
X008481Y017917D02*
X008339Y017775D01*
X007914Y017775D01*
X007914Y017491D02*
X007914Y018342D01*
X008339Y018342D01*
X008481Y018200D01*
X008481Y017917D01*
X007560Y017917D02*
X007419Y017775D01*
X007135Y017775D01*
X006993Y017917D01*
X006993Y018200D01*
X007135Y018342D01*
X007419Y018342D01*
X007560Y018200D01*
X007560Y017917D01*
X006640Y017775D02*
X006214Y017775D01*
X006072Y017917D01*
X006072Y018200D01*
X006214Y018342D01*
X006640Y018342D01*
X006640Y017491D01*
X005719Y017917D02*
X005577Y017775D01*
X005293Y017775D01*
X005152Y018059D02*
X005719Y018059D01*
X005719Y018200D02*
X005577Y018342D01*
X005293Y018342D01*
X005152Y018200D01*
X005152Y018059D01*
X004798Y017775D02*
X004798Y018342D01*
X004373Y018342D01*
X004231Y018200D01*
X004231Y017775D01*
X003877Y017775D02*
X003736Y017775D01*
X003736Y017917D01*
X003877Y017917D01*
X003877Y017775D01*
X003417Y017917D02*
X003417Y018200D01*
X003275Y018342D01*
X002992Y018342D01*
X002850Y018200D01*
X002850Y017917D01*
X002992Y017775D01*
X003275Y017775D01*
X003417Y017917D01*
X002496Y018059D02*
X002213Y018342D01*
X002071Y018342D01*
X001729Y018200D02*
X001729Y017917D01*
X001587Y017775D01*
X001162Y017775D01*
X001162Y017633D02*
X001162Y018342D01*
X001587Y018342D01*
X001729Y018200D01*
X001445Y017491D02*
X001303Y017491D01*
X001162Y017633D01*
X002496Y017775D02*
X002496Y018342D01*
X005719Y018200D02*
X005719Y017917D01*
D13*
X013632Y008386D02*
X013978Y008103D01*
X014070Y008154D01*
X014166Y008194D01*
X014267Y008223D01*
X014312Y008668D01*
X014648Y008668D01*
X014693Y008223D01*
X014794Y008194D01*
X014890Y008154D01*
X014982Y008103D01*
X015328Y008386D01*
X015566Y008148D01*
X015283Y007802D01*
X015334Y007710D01*
X015374Y007614D01*
X015403Y007513D01*
X015848Y007468D01*
X015848Y007132D01*
X015403Y007087D01*
X015374Y006986D01*
X015334Y006890D01*
X015283Y006798D01*
X015566Y006452D01*
X015328Y006214D01*
X014982Y006497D01*
X014914Y006458D01*
X014843Y006425D01*
X014645Y006902D01*
X014709Y006935D01*
X014767Y006979D01*
X014817Y007032D01*
X014857Y007092D01*
X014886Y007158D01*
X014905Y007228D01*
X014911Y007300D01*
X014903Y007380D01*
X014881Y007458D01*
X014844Y007530D01*
X014795Y007594D01*
X014734Y007648D01*
X014665Y007689D01*
X014589Y007717D01*
X014509Y007730D01*
X014429Y007728D01*
X014350Y007710D01*
X014275Y007679D01*
X014208Y007634D01*
X014151Y007577D01*
X014105Y007511D01*
X014072Y007437D01*
X014053Y007359D01*
X014050Y007278D01*
X014062Y007198D01*
X014088Y007122D01*
X014128Y007052D01*
X014181Y006990D01*
X014244Y006940D01*
X014315Y006902D01*
X014117Y006425D01*
X014046Y006458D01*
X013978Y006497D01*
X013632Y006214D01*
X013394Y006452D01*
X013677Y006798D01*
X013626Y006890D01*
X013586Y006986D01*
X013557Y007087D01*
X013112Y007132D01*
X013112Y007468D01*
X013557Y007513D01*
X013586Y007614D01*
X013626Y007710D01*
X013677Y007802D01*
X013394Y008148D01*
X013632Y008386D01*
X013607Y008361D02*
X013662Y008361D01*
X013732Y008304D02*
X013550Y008304D01*
X013492Y008246D02*
X013803Y008246D01*
X013873Y008189D02*
X013434Y008189D01*
X013408Y008131D02*
X013944Y008131D01*
X014028Y008131D02*
X014932Y008131D01*
X015016Y008131D02*
X015552Y008131D01*
X015526Y008189D02*
X015087Y008189D01*
X015157Y008246D02*
X015468Y008246D01*
X015410Y008304D02*
X015228Y008304D01*
X015298Y008361D02*
X015353Y008361D01*
X015505Y008074D02*
X013455Y008074D01*
X013502Y008016D02*
X015458Y008016D01*
X015411Y007958D02*
X013549Y007958D01*
X013596Y007901D02*
X015364Y007901D01*
X015317Y007843D02*
X013643Y007843D01*
X013668Y007786D02*
X015292Y007786D01*
X015324Y007728D02*
X014518Y007728D01*
X014454Y007728D02*
X013636Y007728D01*
X013610Y007671D02*
X014263Y007671D01*
X014187Y007613D02*
X013586Y007613D01*
X013569Y007556D02*
X014135Y007556D01*
X014099Y007498D02*
X013408Y007498D01*
X013112Y007440D02*
X014073Y007440D01*
X014059Y007383D02*
X013112Y007383D01*
X013112Y007325D02*
X014052Y007325D01*
X014051Y007268D02*
X013112Y007268D01*
X013112Y007210D02*
X014060Y007210D01*
X014077Y007153D02*
X013112Y007153D01*
X013476Y007095D02*
X014103Y007095D01*
X014140Y007038D02*
X013571Y007038D01*
X013589Y006980D02*
X014194Y006980D01*
X014277Y006922D02*
X013613Y006922D01*
X013640Y006865D02*
X014300Y006865D01*
X014276Y006807D02*
X013671Y006807D01*
X013637Y006750D02*
X014252Y006750D01*
X014228Y006692D02*
X013590Y006692D01*
X013543Y006635D02*
X014204Y006635D01*
X014181Y006577D02*
X013496Y006577D01*
X013450Y006520D02*
X014157Y006520D01*
X014133Y006462D02*
X014039Y006462D01*
X013936Y006462D02*
X013403Y006462D01*
X013441Y006404D02*
X013865Y006404D01*
X013794Y006347D02*
X013499Y006347D01*
X013557Y006289D02*
X013724Y006289D01*
X013653Y006232D02*
X013614Y006232D01*
X014660Y006865D02*
X015320Y006865D01*
X015347Y006922D02*
X014684Y006922D01*
X014768Y006980D02*
X015371Y006980D01*
X015389Y007038D02*
X014821Y007038D01*
X014858Y007095D02*
X015484Y007095D01*
X015289Y006807D02*
X014684Y006807D01*
X014708Y006750D02*
X015323Y006750D01*
X015370Y006692D02*
X014732Y006692D01*
X014756Y006635D02*
X015417Y006635D01*
X015464Y006577D02*
X014779Y006577D01*
X014803Y006520D02*
X015510Y006520D01*
X015557Y006462D02*
X015024Y006462D01*
X015095Y006404D02*
X015519Y006404D01*
X015461Y006347D02*
X015166Y006347D01*
X015236Y006289D02*
X015403Y006289D01*
X015346Y006232D02*
X015307Y006232D01*
X014921Y006462D02*
X014827Y006462D01*
X014884Y007153D02*
X015848Y007153D01*
X015848Y007210D02*
X014900Y007210D01*
X014908Y007268D02*
X015848Y007268D01*
X015848Y007325D02*
X014908Y007325D01*
X014902Y007383D02*
X015848Y007383D01*
X015848Y007440D02*
X014886Y007440D01*
X014860Y007498D02*
X015552Y007498D01*
X015391Y007556D02*
X014824Y007556D01*
X014773Y007613D02*
X015374Y007613D01*
X015350Y007671D02*
X014696Y007671D01*
X014806Y008189D02*
X014154Y008189D01*
X014269Y008246D02*
X014691Y008246D01*
X014685Y008304D02*
X014275Y008304D01*
X014281Y008361D02*
X014679Y008361D01*
X014673Y008419D02*
X014287Y008419D01*
X014293Y008476D02*
X014667Y008476D01*
X014662Y008534D02*
X014298Y008534D01*
X014304Y008592D02*
X014656Y008592D01*
X014650Y008649D02*
X014310Y008649D01*
M02*
